<svg width="88" height="88" viewBox="0 0 88 88" fill="none" xmlns="http://www.w3.org/2000/svg">
<path d="M45.7098 77.2073V85.0596H41.0014V84.2161H44.7589V81.5629H41.3542V80.7193H44.7589V77.2073H45.7098Z" fill="#DC2626"/>
<path d="M37.2085 76.6638L35.0911 84.2253L32.5364 83.5091C31.9457 83.3435 31.4891 83.1066 31.1666 82.7985C30.8434 82.4929 30.6396 82.1398 30.5554 81.7392C30.4711 81.3386 30.4914 80.9156 30.6161 80.4701C30.7409 80.0246 30.9426 79.655 31.2212 79.3615C31.4998 79.068 31.855 78.8755 32.2867 78.7842C32.7177 78.6953 33.2261 78.733 33.8119 78.8972L35.8793 79.4768L35.6477 80.3038L33.6098 79.7325C33.2062 79.6193 32.8648 79.5873 32.5856 79.6365C32.3039 79.6849 32.0774 79.8019 31.906 79.9875C31.7314 80.1748 31.6017 80.4199 31.5169 80.7226C31.4322 81.0254 31.4147 81.3058 31.4645 81.564C31.5143 81.8222 31.6462 82.0477 31.8604 82.2405C32.0738 82.4357 32.3848 82.5906 32.7933 82.7051L34.403 83.1563L36.2929 76.4072L37.2085 76.6638ZM32.6984 79.0629L31.7889 75.1445L32.8522 75.4426L33.7321 79.3527L32.6984 79.0629Z" fill="#DC2626"/>
<path d="M28.049 73.3671L23.9708 80.0773L19.9223 77.614L20.3604 76.8932L23.5966 78.8622L24.9746 76.5949L21.948 74.7534L22.3861 74.0326L25.4127 75.8741L26.7986 73.5937L23.5101 71.5927L23.9482 70.8719L28.049 73.3671Z" fill="#DC2626"/>
<path d="M20.6174 68.0249L14.8802 73.3861L11.6466 69.9218L12.2629 69.3458L14.8477 72.1151L16.7862 70.3036L14.3689 67.7137L14.9852 67.1378L17.4025 69.7277L19.3523 67.9057L16.7256 65.0916L17.3419 64.5157L20.6174 68.0249Z" fill="#DC2626"/>
<path d="M10.5905 54.7824C10.694 55.0739 10.7175 55.3653 10.6609 55.6567C10.602 55.9489 10.4778 56.2101 10.2883 56.4403C10.0979 56.668 9.85702 56.8337 9.56561 56.9374C9.27179 57.0418 8.98043 57.0654 8.69152 57.0081C8.39935 56.9492 8.13945 56.8246 7.9118 56.6343C7.68174 56.4448 7.51495 56.2043 7.41143 55.9129C7.30705 55.619 7.28477 55.3272 7.34457 55.0373C7.4011 54.7459 7.52455 54.4864 7.71491 54.2586C7.902 54.0293 8.14246 53.8624 8.43628 53.7579C8.72769 53.6543 9.01948 53.6319 9.31165 53.6908C9.60296 53.7473 9.86364 53.8703 10.0937 54.0597C10.3205 54.2477 10.4861 54.4886 10.5905 54.7824Z" fill="#DC2626"/>
<path d="M2.22294 44.3444L2.30035 43.2122L8.98517 40.9949L8.99145 40.9031L2.67064 37.7957L2.74804 36.6634L10.582 37.1996L10.5214 38.087L4.56936 37.6797L4.56413 37.7562L10.3488 40.6117L10.2902 41.4685L4.17083 43.5093L4.1656 43.5858L10.1176 43.9932L10.0569 44.8806L2.22294 44.3444Z" fill="#DC2626"/>
<path d="M11.4932 34.2723L11.1595 35.2117L4.72613 29.8638L5.05466 28.9389L13.4182 28.8528L13.0845 29.7922L6.07112 29.7887L6.05058 29.8465L11.4932 34.2723ZM8.72636 32.8978L10.0713 29.1114L10.866 29.394L9.52111 33.1804L8.72636 32.8978Z" fill="#DC2626"/>
<path d="M14.8556 26.4224L8.44174 21.8925L9.97122 19.7245C10.3249 19.2232 10.7007 18.8722 11.0989 18.6714C11.4949 18.4692 11.8957 18.3956 12.3012 18.4504C12.7067 18.5052 13.0984 18.6661 13.4763 18.933C13.8542 19.1999 14.1348 19.5138 14.3181 19.8749C14.5013 20.2359 14.5637 20.6351 14.5053 21.0727C14.4448 21.5087 14.2392 21.9753 13.8885 22.4724L12.6508 24.2268L11.9493 23.7314L13.1693 22.002C13.411 21.6594 13.5554 21.3484 13.6025 21.0687C13.6511 20.787 13.6167 20.5342 13.4993 20.3105C13.3812 20.0832 13.1938 19.8788 12.937 19.6974C12.6802 19.5161 12.4219 19.4056 12.162 19.366C11.9021 19.3264 11.6456 19.3752 11.3924 19.5124C11.1371 19.6482 10.8871 19.8894 10.6425 20.2361L9.67887 21.6021L15.4038 25.6455L14.8556 26.4224ZM14.1051 21.3673L18.1003 21.8233L17.4637 22.7256L13.4862 22.2445L14.1051 21.3673Z" fill="#DC2626"/>
<path d="M20.9054 18.9855L15.9516 12.893L16.689 12.2927L19.1466 15.3152L19.218 15.2571L19.496 10.0078L20.4595 9.22353L20.1373 14.0539L25.4133 15.316L24.5212 16.0422L20.1013 14.9335L20.0367 16.4099L21.6429 18.3852L20.9054 18.9855Z" fill="#DC2626"/>
<path d="M28.5445 13.67L25.4177 6.46712L29.7639 4.57821L30.0998 5.35195L26.6256 6.86186L27.6822 9.29564L30.9313 7.88354L31.2672 8.65729L28.0181 10.0694L29.0807 12.5172L32.6112 10.9829L32.9471 11.7566L28.5445 13.67Z" fill="#DC2626"/>
<path d="M35.2204 3.87054L35.1056 3.03487L40.9399 2.23251L41.0547 3.06817L38.6086 3.40458L39.5624 10.3482L38.6204 10.4777L37.6666 3.53413L35.2204 3.87054Z" fill="#DC2626"/>
<path d="M49.9202 2.69315L48.8515 10.4724L47.9095 10.3429L48.9782 2.56361L49.9202 2.69315Z" fill="#DC2626"/>
<path d="M63.5955 7.12093L60.4686 14.3238L59.6247 13.957L58.1554 6.59611L58.0851 6.56555L55.63 12.2209L54.758 11.8419L57.8848 4.63905L58.7288 5.00583L60.2059 12.3869L60.2763 12.4175L62.7375 6.74803L63.5955 7.12093Z" fill="#DC2626"/>
<path d="M70.5341 15.2267C70.6315 14.9732 70.6912 14.7235 70.7132 14.4777C70.7387 14.2315 70.7241 13.9922 70.6694 13.7598C70.6166 13.5289 70.5222 13.3087 70.3862 13.0992C70.2502 12.8896 70.0722 12.6952 69.8522 12.5161C69.4914 12.2224 69.0875 12.0486 68.6406 11.9946C68.1936 11.9406 67.7354 12.024 67.2658 12.245C66.7963 12.4659 66.347 12.8401 65.9181 13.3677C65.4891 13.8952 65.2153 14.4122 65.0967 14.9188C64.978 15.4253 64.9935 15.8945 65.1432 16.3262C65.293 16.7579 65.5562 17.127 65.9328 17.4336C66.2817 17.7176 66.6494 17.8934 67.036 17.9609C67.4262 18.028 67.8069 17.9852 68.1781 17.8325C68.5529 17.6795 68.8919 17.4166 69.195 17.0437L69.3823 17.2753L67.5506 15.7843L68.0828 15.1298L70.4021 17.0178L69.87 17.6722C69.462 18.174 69.0002 18.5232 68.4845 18.7198C67.9709 18.918 67.4437 18.9667 66.9029 18.866C66.3658 18.7649 65.8553 18.5175 65.3716 18.1238C64.8324 17.6849 64.4619 17.1723 64.2599 16.586C64.0599 16.0013 64.0363 15.3822 64.1889 14.7286C64.3434 14.0766 64.682 13.4293 65.2044 12.7867C65.5963 12.3048 66.0131 11.9239 66.4547 11.6441C66.9 11.3638 67.3521 11.1847 67.8109 11.1066C68.2697 11.0286 68.7205 11.0495 69.1633 11.1693C69.6061 11.2892 70.0228 11.5081 70.4133 11.826C70.7345 12.0874 70.9943 12.3796 71.1928 12.7027C71.3949 13.0254 71.5332 13.3638 71.6078 13.7178C71.6859 14.0715 71.6992 14.43 71.6475 14.7933C71.5975 15.1547 71.4801 15.5057 71.2953 15.8464L70.5341 15.2267Z" fill="#DC2626"/>
<path d="M75.0975 28.0974C74.9553 27.8228 74.8923 27.5373 74.9087 27.2409C74.9273 26.9433 75.0148 26.6676 75.1712 26.4138C75.3288 26.1622 75.5448 25.9652 75.8194 25.8229C76.0963 25.6793 76.3817 25.6163 76.6757 25.6337C76.9731 25.6523 77.2476 25.7403 77.499 25.8979C77.7527 26.0543 77.9507 26.2698 78.0929 26.5445C78.2363 26.8214 78.2981 27.1075 78.2783 27.4028C78.262 27.6992 78.175 27.9731 78.0175 28.2247C77.8633 28.4774 77.6479 28.6755 77.371 28.819C77.0964 28.9614 76.8104 29.0233 76.513 29.0047C76.2167 28.9885 75.9417 28.9021 75.688 28.7457C75.4377 28.5904 75.2409 28.3743 75.0975 28.0974Z" fill="#DC2626"/>
<path d="M77.0775 39.3865L77.0095 38.392L85.0402 40.7324L85.1071 41.7116L77.4698 45.1244L77.4018 44.1298L83.8364 41.3374L83.8322 41.2762L77.0775 39.3865ZM80.1628 39.5443L80.4368 43.5531L79.5953 43.6107L79.3212 39.6019L80.1628 39.5443Z" fill="#DC2626"/>
<path d="M83.7392 54.6602L83.5459 55.5912L78.4557 54.5329C77.9301 54.4236 77.4866 54.2021 77.1252 53.8685C76.7657 53.5379 76.5136 53.1239 76.3689 52.6265C76.2267 52.1296 76.2182 51.5796 76.3435 50.9764C76.4687 50.3733 76.6955 49.8722 77.0238 49.4731C77.3546 49.0746 77.7509 48.7941 78.2128 48.6316C78.6766 48.4722 79.1713 48.4472 79.6969 48.5564L84.7871 49.6148L84.5937 50.5458L79.5786 49.503C79.2032 49.425 78.852 49.4381 78.5249 49.5424C78.2003 49.6472 77.9224 49.8349 77.6913 50.1053C77.4622 50.3788 77.3032 50.7296 77.2144 51.1575C77.1255 51.5855 77.1317 51.9705 77.2329 52.3127C77.3366 52.6554 77.5168 52.9383 77.7733 53.1613C78.0318 53.3874 78.3487 53.5394 78.7241 53.6175L83.7392 54.6602Z" fill="#DC2626"/>
<path d="M73.747 58.672L74.8613 56.5202L81.8324 60.1344L80.6687 62.3815C80.3184 63.0579 79.8791 63.5643 79.3508 63.9008C78.8248 64.2385 78.2355 64.4008 77.583 64.3879C76.9328 64.3761 76.2469 64.1832 75.5253 63.8091C74.7991 63.4326 74.2409 62.9791 73.8507 62.4486C73.4628 61.9192 73.2563 61.3342 73.2312 60.6935C73.2083 60.054 73.3802 59.3801 73.747 58.672ZM75.1729 57.7528L74.524 59.0057C74.2255 59.5823 74.0892 60.1177 74.1153 60.612C74.1414 61.1064 74.3116 61.5531 74.6259 61.9522C74.9403 62.3512 75.3811 62.6978 75.9484 62.992C76.5112 63.2837 77.0433 63.443 77.5447 63.4697C78.0484 63.4976 78.5038 63.3854 78.9109 63.1329C79.3202 62.8815 79.666 62.4835 79.9481 61.9388L80.6463 60.5905L75.1729 57.7528Z" fill="#DC2626"/>
<path d="M73.6382 72.3041L67.901 66.9429L68.5498 66.2478L74.287 71.609L73.6382 72.3041Z" fill="#DC2626"/>
<path d="M67.4172 76.7299L67.8553 77.4507L62.8242 80.5119L62.3861 79.7911L64.4955 78.5076L60.8554 72.5183L61.6677 72.024L65.3078 78.0134L67.4172 76.7299Z" fill="#DC2626"/>
<path d="M53.0632 76.564C53.3696 76.5219 53.6597 76.5581 53.9335 76.6727C54.2076 76.7898 54.438 76.9645 54.6247 77.1969C54.8089 77.4295 54.922 77.6991 54.9641 78.0055C55.0065 78.3144 54.9703 78.6045 54.8553 78.8758C54.7382 79.1499 54.5632 79.3791 54.3305 79.5633C54.0982 79.7501 53.8288 79.8645 53.5224 79.9067C53.2135 79.9492 52.9232 79.9117 52.6517 79.7942C52.3779 79.6796 52.1489 79.506 51.9647 79.2733C51.7784 79.0435 51.664 78.7741 51.6215 78.4652C51.5794 78.1588 51.617 77.8685 51.7341 77.5944C51.8487 77.3206 52.0222 77.0903 52.2546 76.9036C52.4847 76.7197 52.7543 76.6065 53.0632 76.564Z" fill="#DC2626"/>
<ellipse cx="43.2022" cy="43.2027" rx="18" ry="18" fill="#DC2626"/>
<path d="M43.2022 37.2026L42.1409 38.2639L46.3297 42.4526H37.2021V43.9526H46.3297L42.1409 48.1414L43.2022 49.2027L49.2022 43.2026L43.2022 37.2026Z" fill="white"/>
</svg>
