<svg width="18" height="18" viewBox="0 0 18 18" fill="none" xmlns="http://www.w3.org/2000/svg">
<path fill-rule="evenodd" clip-rule="evenodd" d="M17.6671 15.5946C17.1424 17.2829 15.0865 18.1253 13.6177 17.9849C11.6117 17.7929 9.42886 16.6662 7.77191 15.4254C5.33636 13.6015 3.05494 10.7804 1.72553 7.78647C0.785991 5.67095 0.575189 3.06944 1.9726 1.14111C2.4894 0.428334 3.04928 0.0479476 3.88795 0.00354923C5.05302 -0.0564486 5.21623 0.649126 5.6163 1.74829C5.91437 2.57026 6.31217 3.40903 6.5343 4.261C6.95024 5.85094 5.49616 5.91694 5.31256 7.21649C5.19923 8.03606 6.1365 9.13522 6.56037 9.7196C7.37738 10.8577 8.37804 11.8339 9.51613 12.6031C10.1621 13.0339 11.2025 13.8103 11.9415 13.3819C13.0794 12.7219 12.9728 10.6904 14.5629 11.3779C15.3868 11.7331 16.1847 12.2455 16.9713 12.6943C18.1873 13.3867 18.1307 14.1042 17.6671 15.5946C18.0139 14.481 17.3203 16.7082 17.6671 15.5946Z" fill="white"/>
</svg>
