<svg width="27" height="24" viewBox="0 0 27 24" fill="none" xmlns="http://www.w3.org/2000/svg">
<path fill-rule="evenodd" clip-rule="evenodd" d="M20.591 5.59099L21.1213 5.06066L20.0607 4L19.5303 4.53033L13.0607 11L6.59104 4.53033L6.06071 4L5.00005 5.06066L5.53038 5.59099L12 12.0606L5.53033 18.5303L5 19.0607L6.06066 20.1213L6.59099 19.591L13.0607 13.1213L19.5304 19.591L20.0607 20.1213L21.1214 19.0607L20.591 18.5303L14.1213 12.0606L20.591 5.59099Z" fill="white"/>
<path d="M21.1213 5.06066L21.4749 5.41421L21.8284 5.06066L21.4749 4.70711L21.1213 5.06066ZM20.591 5.59099L20.9446 5.94454L20.9446 5.94454L20.591 5.59099ZM20.0607 4L20.4142 3.64645L20.0607 3.29289L19.7071 3.64645L20.0607 4ZM19.5303 4.53033L19.1768 4.17678V4.17678L19.5303 4.53033ZM13.0607 11L12.7071 11.3535L13.0607 11.7071L13.4142 11.3535L13.0607 11ZM6.59104 4.53033L6.23748 4.88388L6.23748 4.88388L6.59104 4.53033ZM6.06071 4L6.41426 3.64645L6.06071 3.29289L5.70715 3.64645L6.06071 4ZM5.00005 5.06066L4.64649 4.70711L4.29294 5.06066L4.64649 5.41421L5.00005 5.06066ZM5.53038 5.59099L5.17682 5.94454H5.17682L5.53038 5.59099ZM12 12.0606L12.3536 12.4142L12.7071 12.0606L12.3536 11.7071L12 12.0606ZM5.53033 18.5303L5.88388 18.8839L5.53033 18.5303ZM5 19.0607L4.64645 18.7071L4.29289 19.0607L4.64645 19.4142L5 19.0607ZM6.06066 20.1213L5.70711 20.4749L6.06066 20.8284L6.41421 20.4749L6.06066 20.1213ZM6.59099 19.591L6.94454 19.9445L6.59099 19.591ZM13.0607 13.1213L13.4142 12.7678L13.0607 12.4142L12.7071 12.7678L13.0607 13.1213ZM19.5304 19.591L19.1768 19.9445V19.9445L19.5304 19.591ZM20.0607 20.1213L19.7071 20.4749L20.0607 20.8284L20.4142 20.4749L20.0607 20.1213ZM21.1214 19.0607L21.4749 19.4142L21.8285 19.0607L21.4749 18.7071L21.1214 19.0607ZM20.591 18.5303L20.2375 18.8839V18.8839L20.591 18.5303ZM14.1213 12.0606L13.7678 11.7071L13.4142 12.0606L13.7678 12.4142L14.1213 12.0606ZM20.7678 4.70711L20.2375 5.23744L20.9446 5.94454L21.4749 5.41421L20.7678 4.70711ZM19.7071 4.35355L20.7678 5.41421L21.4749 4.70711L20.4142 3.64645L19.7071 4.35355ZM19.8839 4.88388L20.4142 4.35355L19.7071 3.64645L19.1768 4.17678L19.8839 4.88388ZM13.4142 11.3535L19.8839 4.88388L19.1768 4.17678L12.7071 10.6464L13.4142 11.3535ZM6.23748 4.88388L12.7071 11.3535L13.4142 10.6464L6.94459 4.17678L6.23748 4.88388ZM5.70715 4.35355L6.23748 4.88388L6.94459 4.17678L6.41426 3.64645L5.70715 4.35355ZM5.3536 5.41421L6.41426 4.35355L5.70715 3.64645L4.64649 4.70711L5.3536 5.41421ZM5.88393 5.23744L5.3536 4.70711L4.64649 5.41421L5.17682 5.94454L5.88393 5.23744ZM12.3536 11.7071L5.88393 5.23744L5.17682 5.94454L11.6465 12.4142L12.3536 11.7071ZM5.88388 18.8839L12.3536 12.4142L11.6465 11.7071L5.17678 18.1768L5.88388 18.8839ZM5.35355 19.4142L5.88388 18.8839L5.17678 18.1768L4.64645 18.7071L5.35355 19.4142ZM6.41421 19.7678L5.35355 18.7071L4.64645 19.4142L5.70711 20.4749L6.41421 19.7678ZM6.23744 19.2374L5.70711 19.7678L6.41421 20.4749L6.94454 19.9445L6.23744 19.2374ZM12.7071 12.7678L6.23744 19.2374L6.94454 19.9445L13.4142 13.4749L12.7071 12.7678ZM19.8839 19.2374L13.4142 12.7678L12.7071 13.4749L19.1768 19.9445L19.8839 19.2374ZM20.4142 19.7678L19.8839 19.2374L19.1768 19.9445L19.7071 20.4749L20.4142 19.7678ZM20.7678 18.7071L19.7071 19.7678L20.4142 20.4749L21.4749 19.4142L20.7678 18.7071ZM20.2375 18.8839L20.7678 19.4142L21.4749 18.7071L20.9446 18.1768L20.2375 18.8839ZM13.7678 12.4142L20.2375 18.8839L20.9446 18.1768L14.4749 11.7071L13.7678 12.4142ZM20.2375 5.23744L13.7678 11.7071L14.4749 12.4142L20.9446 5.94454L20.2375 5.23744Z" fill="white"/>
</svg>
