<svg width="20" height="21" viewBox="0 0 20 21" fill="none" xmlns="http://www.w3.org/2000/svg">
<path d="M11.0286 0.0441991C11.7583 0.0413989 12.488 0.048733 13.2176 0.0661992L13.4116 0.0731992C13.6356 0.0811992 13.8566 0.0911992 14.1236 0.103199C15.1876 0.153199 15.9136 0.321199 16.5506 0.568199C17.2106 0.822199 17.7666 1.1662 18.3226 1.7222C18.831 2.22181 19.2244 2.82615 19.4756 3.4932C19.7226 4.1302 19.8906 4.8572 19.9406 5.9212C19.9526 6.1872 19.9626 6.4092 19.9706 6.6332L19.9766 6.8272C19.9943 7.55639 20.002 8.2858 19.9996 9.0152L20.0006 9.7612V11.0712C20.003 11.8009 19.9954 12.5307 19.9776 13.2602L19.9716 13.4542C19.9636 13.6782 19.9536 13.8992 19.9416 14.1662C19.8916 15.2302 19.7216 15.9562 19.4756 16.5932C19.2252 17.261 18.8317 17.8658 18.3226 18.3652C17.8225 18.8735 17.2179 19.267 16.5506 19.5182C15.9136 19.7652 15.1876 19.9332 14.1236 19.9832C13.8566 19.9952 13.6356 20.0052 13.4116 20.0132L13.2176 20.0192C12.4881 20.037 11.7583 20.0446 11.0286 20.0422L10.2826 20.0432H8.97358C8.24384 20.0457 7.5141 20.038 6.78458 20.0202L6.59058 20.0142C6.35319 20.0056 6.11585 19.9956 5.87858 19.9842C4.81458 19.9342 4.08858 19.7642 3.45058 19.5182C2.78326 19.2675 2.17881 18.874 1.67958 18.3652C1.17062 17.8655 0.776801 17.2608 0.525577 16.5932C0.278577 15.9562 0.110577 15.2302 0.0605769 14.1662C0.0494399 13.9289 0.0394398 13.6916 0.030577 13.4542L0.0255771 13.2602C0.00714068 12.5307 -0.00119355 11.8009 0.000577001 11.0712V9.0152C-0.00221397 8.2858 0.00512015 7.5564 0.0225771 6.8272L0.029577 6.6332C0.037577 6.4092 0.047577 6.1872 0.059577 5.9212C0.109577 4.8562 0.277577 4.1312 0.524577 3.4932C0.77595 2.82582 1.17054 2.22164 1.68058 1.7232C2.17947 1.21395 2.78354 0.819772 3.45058 0.568199C4.08858 0.321199 4.81358 0.153199 5.87858 0.103199L6.59058 0.0731992L6.78458 0.0681993C7.51376 0.0497721 8.24316 0.0414379 8.97258 0.0431992L11.0286 0.0441991ZM10.0006 5.0442C9.33808 5.03483 8.68033 5.15722 8.06555 5.40427C7.45077 5.65131 6.89122 6.01808 6.41942 6.48325C5.94762 6.94843 5.57298 7.50274 5.31726 8.11396C5.06155 8.72519 4.92987 9.38114 4.92987 10.0437C4.92987 10.7063 5.06155 11.3622 5.31726 11.9734C5.57298 12.5847 5.94762 13.139 6.41942 13.6041C6.89122 14.0693 7.45077 14.4361 8.06555 14.6831C8.68033 14.9302 9.33808 15.0526 10.0006 15.0432C11.3267 15.0432 12.5984 14.5164 13.5361 13.5787C14.4738 12.6411 15.0006 11.3693 15.0006 10.0432C15.0006 8.71712 14.4738 7.44535 13.5361 6.50767C12.5984 5.56998 11.3267 5.0442 10.0006 5.0442ZM10.0006 7.0442C10.3991 7.03686 10.7951 7.109 11.1654 7.25641C11.5357 7.40382 11.8729 7.62354 12.1574 7.90274C12.4418 8.18195 12.6678 8.51503 12.822 8.88254C12.9763 9.25005 13.0558 9.64462 13.0558 10.0432C13.0559 10.4418 12.9766 10.8364 12.8224 11.2039C12.6683 11.5715 12.4424 11.9046 12.1581 12.1839C11.8737 12.4632 11.5366 12.6831 11.1663 12.8306C10.796 12.9781 10.4001 13.0504 10.0016 13.0432C9.20593 13.0432 8.44287 12.7271 7.88026 12.1645C7.31765 11.6019 7.00158 10.8388 7.00158 10.0432C7.00158 9.24755 7.31765 8.48449 7.88026 7.92188C8.44287 7.35927 9.20593 7.0432 10.0016 7.0432L10.0006 7.0442ZM15.2506 3.5442C14.928 3.55711 14.6229 3.69435 14.3992 3.92717C14.1755 4.15999 14.0506 4.47033 14.0506 4.7932C14.0506 5.11606 14.1755 5.42641 14.3992 5.65923C14.6229 5.89205 14.928 6.02929 15.2506 6.0422C15.5821 6.0422 15.9 5.9105 16.1345 5.67608C16.3689 5.44166 16.5006 5.12372 16.5006 4.7922C16.5006 4.46068 16.3689 4.14274 16.1345 3.90832C15.9 3.6739 15.5821 3.5422 15.2506 3.5422V3.5442Z" fill="white"/>
</svg>
