<svg width="537" height="535" viewBox="0 0 537 535" fill="none" xmlns="http://www.w3.org/2000/svg">
<rect width="537" height="535" fill="url(#paint0_radial_1_718)" fill-opacity="0.2"/>
<mask id="mask0_1_718" style="mask-type:luminance" maskUnits="userSpaceOnUse" x="70" y="159" width="238" height="242">
<path d="M279.57 175.428C256.176 157.368 226.534 154.974 178.959 166.829C143.196 177.938 152.562 194.244 110.478 211.475C83.6922 222.447 66.1362 241.694 70.9032 268.92C75.7227 296.409 89.4252 294.981 97.2687 344.52C105.511 396.558 177.258 408.696 222.072 395.298C299.908 373.122 337.32 228.117 279.57 175.428Z" fill="white"/>
</mask>
<g mask="url(#mask0_1_718)">
<path d="M279.57 175.428C256.176 157.368 226.534 154.974 178.959 166.829C143.196 177.938 152.562 194.244 110.478 211.475C83.6922 222.447 66.1362 241.694 70.9032 268.92C75.7227 296.409 89.4252 294.981 97.2687 344.52C105.511 396.558 177.258 408.696 222.072 395.298C299.908 373.122 337.32 228.117 279.57 175.428Z" stroke="#A9A9A9" stroke-width="1.05" stroke-miterlimit="10"/>
</g>
<mask id="mask1_1_718" style="mask-type:luminance" maskUnits="userSpaceOnUse" x="210" y="106" width="217" height="299">
<path d="M220.823 333.873C201.094 272.784 208.864 205.773 243.062 151.446C257.059 129.217 272.588 103.744 292.958 106.695C323.965 111.126 324.049 151.687 349.532 178.315C375.016 204.943 417.499 215.79 425.048 271.429C437.165 360.616 333.331 421.159 270.982 399.897C246.065 391.402 230.515 363.861 220.823 333.873Z" fill="white"/>
</mask>
<g mask="url(#mask1_1_718)">
<path d="M220.823 333.873C201.094 272.784 208.864 205.773 243.062 151.446C257.059 129.217 272.588 103.744 292.958 106.695C323.965 111.126 324.049 151.687 349.532 178.315C375.016 204.943 417.499 215.79 425.048 271.429C437.165 360.616 333.331 421.159 270.982 399.897C246.065 391.402 230.515 363.861 220.823 333.873Z" stroke="#A9A9A9" stroke-width="1.05" stroke-miterlimit="10"/>
</g>
<path d="M106.751 286.622C109.061 285.887 111.382 285.162 113.692 284.417C115.391 283.901 116.846 282.788 117.788 281.282C118.73 279.776 119.095 277.981 118.816 276.227C118.744 275.829 118.645 275.436 118.522 275.051C117.066 270.431 115.599 265.811 114.122 261.191C113.621 259.478 112.513 258.006 111.006 257.049C109.499 256.093 107.696 255.718 105.932 255.993C105.505 256.067 105.084 256.173 104.672 256.308L90.8541 260.697C89.9112 260.969 89.0327 261.427 88.2714 262.046C87.5102 262.665 86.8818 263.432 86.4238 264.3C85.9659 265.167 85.688 266.119 85.6067 267.096C85.5254 268.074 85.6423 269.058 85.9506 269.99C87.4066 274.694 88.8976 279.384 90.4236 284.06C90.7076 284.999 91.1782 285.871 91.8073 286.623C92.4363 287.376 93.2108 287.994 94.0844 288.44C94.958 288.886 95.9127 289.151 96.8912 289.219C97.8698 289.288 98.852 289.158 99.7791 288.837L106.751 286.622Z" fill="#1E1D1D" stroke="#A9A9A9" stroke-width="1.05" stroke-miterlimit="10"/>
<path d="M100.526 267.084C101.611 266.74 102.774 266.726 103.868 267.043C104.961 267.36 105.936 267.994 106.669 268.865C107.402 269.736 107.86 270.806 107.985 271.937C108.11 273.069 107.896 274.212 107.371 275.222C106.846 276.233 106.033 277.064 105.036 277.613C104.038 278.161 102.9 278.4 101.765 278.301C100.631 278.202 99.5518 277.769 98.6639 277.057C97.776 276.344 97.1194 275.384 96.7774 274.298C96.3223 272.844 96.4612 271.27 97.1636 269.918C97.866 268.566 99.0748 267.548 100.526 267.084Z" fill="#1E1D1D" stroke="#A9A9A9" stroke-width="1.05" stroke-miterlimit="10"/>
<path d="M92.3034 268.837C92.6407 268.725 92.937 268.514 93.1546 268.233C93.3723 267.952 93.5016 267.612 93.526 267.258C93.5505 266.903 93.469 266.549 93.292 266.24C93.115 265.932 92.8504 265.683 92.5318 265.525C92.2131 265.367 91.8548 265.308 91.5022 265.354C91.1495 265.4 90.8186 265.55 90.5512 265.784C90.2838 266.018 90.092 266.327 90.0001 266.671C89.9083 267.014 89.9206 267.377 90.0354 267.714C90.1088 267.938 90.2261 268.145 90.3803 268.323C90.5346 268.501 90.7227 268.646 90.9339 268.751C91.145 268.855 91.3748 268.917 91.6099 268.932C91.8451 268.947 92.0808 268.914 92.3034 268.837Z" fill="#1E1D1D" stroke="#A9A9A9" stroke-width="1.05" stroke-miterlimit="10"/>
<path d="M60.8652 337.003C62.0202 331.543 63.1647 326.125 64.3302 320.655L60.9387 319.93C61.3272 318.072 61.7157 316.266 62.1147 314.386L65.5062 315.111C65.7267 314.061 65.9157 313.105 66.1362 312.15C66.3115 311.132 66.5606 310.128 66.8817 309.147C67.2214 308.13 67.8688 307.245 68.7342 306.613C69.5996 305.981 70.6402 305.633 71.7117 305.619C74.3472 305.472 76.8042 306.417 79.3767 306.826L78.1692 312.496L75.5652 311.94C75.1347 311.856 74.7042 311.761 74.2632 311.709C74.1143 311.663 73.957 311.651 73.8027 311.673C73.6485 311.696 73.5012 311.752 73.3715 311.839C73.2418 311.925 73.133 312.039 73.0529 312.173C72.9729 312.307 72.9236 312.457 72.9087 312.612C72.6042 313.851 72.3627 315.111 72.0897 316.434L77.1192 317.484C76.5627 319.29 76.0692 321.033 75.4812 322.839L70.9137 321.873C69.7377 327.396 68.5827 332.845 67.4172 338.326L60.8652 337.003Z" fill="#1E1D1D" stroke="#A9A9A9" stroke-width="1.05" stroke-miterlimit="10"/>
<g clip-path="url(#clip0_1_718)">
<path d="M125.456 326.892L133.105 318H131.293L124.65 325.721L119.345 318H113.227L121.249 329.675L113.227 339H115.039L122.054 330.846L127.656 339H133.775L125.455 326.892H125.456ZM122.973 329.778L122.16 328.615L115.693 319.364H118.477L123.696 326.83L124.509 327.993L131.293 337.697H128.509L122.973 329.778V329.778Z" fill="#A9A9A9"/>
</g>
<path d="M128.929 219.045C125.915 219.675 123.091 220.232 120.235 220.641C119.113 220.836 117.98 220.951 116.843 220.988C115.861 221.045 114.889 220.774 114.079 220.217C113.268 219.66 112.667 218.848 112.37 217.911C111.782 216.305 111.308 214.66 110.953 212.987C110.48 210.887 110.081 208.787 109.808 206.687C109.663 205.735 109.607 204.772 109.64 203.81C109.666 202.963 109.948 202.143 110.448 201.459C110.949 200.775 111.644 200.259 112.444 199.977C113.876 199.421 115.351 198.979 116.854 198.654C119.08 198.087 121.327 197.604 123.574 197.142C126.724 196.481 129.947 195.882 133.16 195.41C134.155 195.252 135.157 195.147 136.163 195.095C137.11 194.987 138.064 195.213 138.863 195.732C139.662 196.251 140.255 197.032 140.542 197.94C141.282 199.884 141.871 201.881 142.306 203.915C142.792 206.015 143.142 208.143 143.356 210.288C143.434 210.964 143.455 211.646 143.419 212.325C143.383 213.162 143.098 213.969 142.6 214.643C142.103 215.316 141.415 215.825 140.626 216.105C139.21 216.645 137.757 217.08 136.279 217.407C133.759 218.058 131.249 218.594 128.929 219.045ZM124.487 213.575L131.459 207.033L122.482 203.757L124.487 213.575Z" fill="#1E1D1D" stroke="#A9A9A9" stroke-width="1.05" stroke-miterlimit="10"/>
<path d="M168.68 195.746C168.396 195.452 168.144 195.168 167.882 194.906C167.066 194.027 166.05 193.359 164.92 192.958C163.79 192.558 162.58 192.437 161.393 192.606C159.775 192.834 158.27 193.565 157.09 194.696C155.911 195.827 155.117 197.299 154.82 198.906C154.607 200.058 154.672 201.244 155.009 202.365C155.347 203.486 155.948 204.511 156.762 205.353C159.314 208.136 161.939 210.855 164.522 213.606L168.428 217.743C168.5 217.815 168.567 217.892 168.627 217.974C168.743 217.933 168.842 217.855 168.911 217.754L180.324 205.679C181.124 204.884 181.743 203.928 182.142 202.873C182.54 201.819 182.708 200.692 182.634 199.568C182.537 197.888 181.87 196.291 180.744 195.041C179.618 193.791 178.1 192.962 176.439 192.69C175.397 192.496 174.326 192.516 173.292 192.748C172.257 192.981 171.281 193.422 170.423 194.045C170.097 194.289 169.795 194.563 169.52 194.864L168.68 195.746Z" fill="#1E1D1D" stroke="#A9A9A9" stroke-width="1.05" stroke-miterlimit="10"/>
<path d="M403.317 215.813C403.149 215.403 402.992 215.025 402.813 214.647C402.306 213.435 401.512 212.364 400.501 211.525C399.49 210.685 398.291 210.103 397.007 209.828C395.253 209.454 393.426 209.64 391.783 210.359C390.14 211.079 388.765 212.296 387.851 213.839C387.203 214.943 386.827 216.185 386.754 217.463C386.681 218.741 386.913 220.018 387.431 221.189C388.995 225.021 390.675 228.812 392.303 232.613L394.76 238.346C394.804 238.448 394.842 238.553 394.875 238.661C395.012 238.657 395.147 238.617 395.264 238.545C400.689 235.836 406.117 233.127 411.549 230.418C412.672 229.902 413.67 229.152 414.478 228.217C415.286 227.282 415.884 226.185 416.232 225C416.776 223.23 416.698 221.327 416.01 219.608C415.322 217.889 414.067 216.457 412.452 215.55C411.453 214.958 410.344 214.574 409.193 214.423C408.041 214.271 406.871 214.355 405.753 214.668C405.326 214.802 404.911 214.974 404.514 215.183L403.317 215.813Z" fill="#1E1D1D" stroke="#A9A9A9" stroke-width="1.05" stroke-miterlimit="10"/>
<path d="M361.482 328.089L378.145 337.938C379.527 338.765 380.523 340.106 380.917 341.667C381.311 343.228 381.069 344.882 380.245 346.265L375.625 354.066C375.217 354.751 374.677 355.349 374.038 355.825C373.398 356.301 372.671 356.647 371.897 356.842C371.124 357.037 370.32 357.078 369.531 356.962C368.742 356.846 367.983 356.575 367.299 356.166L358.174 350.769L351.874 351.756C351.51 351.814 351.137 351.766 350.799 351.62C350.461 351.473 350.172 351.233 349.965 350.928C349.758 350.623 349.642 350.266 349.63 349.897C349.619 349.529 349.713 349.165 349.9 348.848L351.213 346.632L350.667 346.307C349.982 345.898 349.384 345.359 348.908 344.719C348.432 344.079 348.086 343.352 347.891 342.579C347.696 341.805 347.655 341.001 347.771 340.212C347.887 339.423 348.158 338.665 348.567 337.98L353.176 330.179C354.007 328.807 355.345 327.819 356.9 327.427C358.455 327.036 360.101 327.274 361.482 328.089Z" fill="#1E1D1D" stroke="#A9A9A9" stroke-width="1.05" stroke-miterlimit="10"/>
<path d="M369.534 343.46C369.336 343.41 369.13 343.399 368.928 343.428C368.726 343.457 368.531 343.526 368.356 343.63C368.18 343.734 368.027 343.872 367.905 344.036C367.783 344.2 367.694 344.386 367.644 344.583C367.575 344.97 367.655 345.367 367.868 345.696C368.08 346.026 368.41 346.263 368.789 346.36C369.169 346.457 369.572 346.407 369.916 346.219C370.261 346.032 370.521 345.722 370.647 345.35C370.749 344.952 370.689 344.529 370.48 344.175C370.272 343.821 369.931 343.564 369.534 343.46Z" fill="#1E1D1D" stroke="#A9A9A9" stroke-width="1.05" stroke-miterlimit="10"/>
<path d="M364.798 340.644C364.5 340.567 364.186 340.579 363.896 340.68C363.605 340.781 363.351 340.966 363.166 341.211C362.98 341.457 362.872 341.752 362.854 342.059C362.837 342.366 362.91 342.672 363.067 342.937C363.223 343.202 363.454 343.414 363.731 343.548C364.008 343.681 364.319 343.73 364.623 343.687C364.928 343.644 365.213 343.511 365.442 343.306C365.671 343.101 365.834 342.832 365.911 342.534C365.963 342.337 365.975 342.132 365.947 341.93C365.92 341.727 365.852 341.533 365.748 341.357C365.645 341.181 365.508 341.028 365.344 340.906C365.181 340.783 364.996 340.694 364.798 340.644Z" fill="#1E1D1D" stroke="#A9A9A9" stroke-width="1.05" stroke-miterlimit="10"/>
<path d="M360.052 337.821C359.85 337.752 359.635 337.727 359.422 337.745C359.209 337.764 359.002 337.826 358.814 337.928C358.626 338.03 358.461 338.17 358.33 338.339C358.199 338.508 358.104 338.702 358.051 338.909C357.998 339.116 357.988 339.332 358.023 339.543C358.057 339.754 358.135 339.956 358.251 340.136C358.366 340.315 358.518 340.469 358.696 340.588C358.875 340.706 359.075 340.786 359.286 340.824C359.672 340.892 360.069 340.812 360.399 340.599C360.728 340.387 360.965 340.057 361.062 339.678C361.159 339.298 361.109 338.895 360.922 338.551C360.734 338.207 360.424 337.946 360.052 337.821Z" fill="#1E1D1D" stroke="#A9A9A9" stroke-width="1.05" stroke-miterlimit="10"/>
<path d="M355.885 151.099L350.425 149.818L224.74 141.87C224.74 141.87 216.34 140.641 211.972 148.17L210.155 153.231L132.581 399.12C132.581 399.12 131.143 401.524 131.92 406.05C132.697 410.575 135.962 415.164 143.123 416.55L280.264 429.37C280.264 429.37 300.098 428.74 304.781 411.363L369.041 173.758C369.041 173.758 371.33 165.012 366.206 158.722C366.175 158.722 362.195 152.433 355.885 151.099Z" fill="#201F1F"/>
<path d="M341.75 160.246L231.269 153.116C231.269 153.116 222.334 151.888 218.102 159.416L216.055 164.299L145.495 386.71C145.495 386.71 143.563 394.438 151.07 397.703L155.501 398.396L269.951 409.033C273.454 409.079 276.879 408.007 279.729 405.971C282.579 403.935 284.705 401.042 285.796 397.714L308.213 320.581L329.213 248.614L351.263 172.625C351.263 172.625 353.143 167.375 349.499 163.301C345.856 159.227 341.75 160.246 341.75 160.246Z" fill="#201F1F"/>
<path d="M354.079 150.48C354.079 150.48 361.271 152.99 362.563 160.382L362.731 165.852L361.303 171.207L295.426 404.518C295.426 404.518 294.701 413.59 283.75 418.168C283.75 418.168 282.164 419.879 274.016 420.005L135.595 407.751C135.595 407.751 132.518 407.51 131.92 406.05C132.165 408.492 133.195 410.787 134.855 412.594C136.515 414.4 138.717 415.619 141.129 416.068L144.762 416.403L280.61 429.045C285.695 428.652 290.583 426.915 294.776 424.013C298.97 421.112 302.317 417.148 304.477 412.529L332.575 308.474L347.737 252.824L369.43 171.438C369.43 171.438 371.635 163.154 363.308 155.153C363.308 155.153 358.825 151.215 354.079 150.48Z" fill="#201F1F"/>
<path d="M286.374 417.945L286.805 416.58C294.816 411.803 295.425 404.516 295.425 404.516L337.352 256.046L337.698 254.933C337.698 254.933 299.898 402.563 296.318 410.186C292.737 417.809 286.374 417.945 286.374 417.945Z" fill="#201F1F"/>
<path d="M216.024 164.266L218.124 159.383C222.324 151.886 231.291 153.083 231.291 153.083L341.751 160.244C341.751 160.244 345.762 159.194 349.406 163.3C353.049 167.405 351.17 172.624 351.17 172.624L350.834 173.789L216.024 164.339V164.266Z" stroke="#A9A9A9" stroke-width="1.05" stroke-miterlimit="10"/>
<path d="M131.5 399.75L210.565 149.745C211.364 147.203 212.944 144.978 215.079 143.383C217.214 141.789 219.797 140.907 222.461 140.862H222.608C222.913 140.862 223.207 140.862 223.511 140.862L262.97 143.445L349.763 148.947C350.351 148.947 350.928 149.063 351.495 149.157C354.48 149.384 357.377 150.266 359.981 151.742C362.584 153.219 364.83 155.252 366.556 157.696C368.283 160.141 369.448 162.937 369.968 165.884C370.488 168.832 370.351 171.858 369.566 174.746L305.957 409.946C304.306 416.085 300.534 421.442 295.31 425.065C290.085 428.688 283.747 430.344 277.418 429.738L143.018 417.138C141.023 416.951 139.094 416.32 137.375 415.29C135.655 414.261 134.188 412.859 133.08 411.189C131.972 409.518 131.253 407.621 130.974 405.637C130.695 403.652 130.864 401.63 131.468 399.719L131.5 399.75ZM212.056 150.26L132.991 400.212C132.757 400.947 132.599 401.703 132.518 402.47C132.487 403.353 132.656 404.233 133.012 405.042C133.264 405.568 133.651 406.017 134.131 406.347C134.612 406.677 135.171 406.875 135.752 406.922L273.659 419.259C278.242 419.709 282.838 418.543 286.652 415.962C290.466 413.381 293.258 409.548 294.544 405.126L361.565 166.692C362.068 164.89 362.161 162.998 361.835 161.155C361.51 159.313 360.775 157.566 359.685 156.045C357.71 153.291 354.745 151.409 351.412 150.795H351.138L241.823 143.76L223.133 142.574C220.687 142.467 218.274 143.172 216.271 144.58C214.267 145.987 212.785 148.017 212.056 150.354V150.26ZM143.197 415.616L277.597 428.216C283.558 428.786 289.529 427.225 294.45 423.812C299.37 420.398 302.923 415.352 304.477 409.568L368.096 174.368C369.184 170.346 368.904 166.076 367.299 162.231C365.695 158.386 362.858 155.183 359.234 153.126C359.872 153.739 360.455 154.407 360.977 155.121C362.203 156.837 363.029 158.806 363.392 160.883C363.756 162.96 363.648 165.093 363.077 167.123L296.056 405.557C294.974 409.339 292.856 412.744 289.941 415.386C287.026 418.028 283.43 419.803 279.56 420.509C277.577 420.882 275.553 420.98 273.544 420.803L135.668 408.465C134.711 408.372 133.8 408.008 133.043 407.415C133.738 409.638 135.077 411.605 136.89 413.066C138.703 414.528 140.909 415.419 143.228 415.626L143.197 415.616Z" fill="#A9A9A9"/>
<path d="M273.628 409.517C276.678 408.957 279.514 407.564 281.821 405.492C284.128 403.42 285.817 400.75 286.701 397.778L352.189 171.954C352.594 170.567 352.68 169.106 352.442 167.681C352.204 166.256 351.647 164.902 350.814 163.722C349.943 162.496 348.808 161.481 347.492 160.754C346.176 160.027 344.713 159.606 343.212 159.522L229.948 152.172C226.956 151.951 223.976 152.74 221.486 154.413C218.996 156.087 217.139 158.548 216.214 161.402L144.93 385.997C144.478 387.394 144.348 388.875 144.549 390.33C144.751 391.785 145.28 393.175 146.095 394.397C146.938 395.664 148.055 396.726 149.364 397.504C150.672 398.281 152.139 398.755 153.655 398.891L268.798 409.737C270.411 409.886 272.036 409.812 273.628 409.517ZM226.788 153.947C227.795 153.76 228.821 153.7 229.843 153.768L343.075 161.097C344.339 161.168 345.571 161.525 346.679 162.139C347.786 162.754 348.74 163.611 349.47 164.646C350.164 165.629 350.627 166.756 350.825 167.944C351.023 169.131 350.951 170.347 350.614 171.503L285.115 397.326C284.091 400.729 281.914 403.67 278.957 405.642C276 407.614 272.449 408.494 268.914 408.131L153.771 397.284C152.496 397.172 151.262 396.775 150.161 396.122C149.06 395.47 148.119 394.579 147.408 393.515C146.729 392.497 146.289 391.34 146.12 390.13C145.951 388.919 146.057 387.686 146.431 386.522L217.747 161.885C218.395 159.867 219.578 158.063 221.17 156.665C222.762 155.268 224.703 154.328 226.788 153.947Z" fill="#A9A9A9"/>
<path d="M323.775 219.791L286.5 346.736C286.207 347.736 285.57 348.601 284.702 349.177C283.833 349.753 282.789 350.004 281.754 349.886L178.003 340.898C177.357 340.824 176.736 340.608 176.183 340.266C175.631 339.924 175.16 339.465 174.805 338.92C174.45 338.376 174.22 337.76 174.13 337.116C174.04 336.473 174.094 335.817 174.286 335.196L212.821 210.74C213.104 209.793 213.696 208.967 214.503 208.396C215.311 207.825 216.286 207.541 217.273 207.59L319.764 214.079C320.437 214.11 321.094 214.294 321.685 214.618C322.276 214.943 322.784 215.398 323.172 215.95C323.559 216.501 323.815 217.134 323.919 217.8C324.024 218.466 323.974 219.147 323.775 219.791Z" stroke="#A9A9A9" stroke-width="1.05" stroke-miterlimit="10"/>
<path opacity="0.5" d="M308.875 199.433C309.264 204.504 314.125 208.274 319.627 207.833C325.129 207.392 329.35 202.94 328.962 197.858C328.573 192.776 323.712 189.017 318.199 189.458C312.687 189.899 308.424 194.351 308.875 199.433Z" fill="#A9A9A9"/>
<path opacity="0.5" d="M302.922 194.571L301.148 200.472C300.964 201.069 300.587 201.588 300.076 201.948C299.564 202.307 298.948 202.486 298.323 202.456L234.41 199.096C233.98 199.075 233.56 198.954 233.184 198.744C232.808 198.533 232.487 198.238 232.244 197.881C232.002 197.525 231.846 197.117 231.788 196.691C231.73 196.264 231.772 195.829 231.911 195.421L234.011 189.31C234.204 188.729 234.583 188.228 235.09 187.884C235.597 187.541 236.203 187.374 236.814 187.41L300.455 191.022C300.868 191.052 301.269 191.174 301.629 191.38C301.988 191.585 302.298 191.868 302.534 192.208C302.771 192.548 302.928 192.937 302.995 193.345C303.063 193.754 303.038 194.173 302.922 194.571Z" fill="#A9A9A9"/>
<path d="M218.766 417.873L198.585 416.036C198.353 416.016 198.119 416.049 197.902 416.135C197.685 416.22 197.49 416.354 197.334 416.527C197.177 416.7 197.063 416.907 196.999 417.131C196.936 417.355 196.925 417.591 196.968 417.821V417.905C197.029 418.228 197.195 418.523 197.44 418.743C197.684 418.963 197.995 419.096 198.323 419.123L218.493 420.887C218.725 420.905 218.958 420.869 219.174 420.784C219.39 420.698 219.584 420.563 219.74 420.391C219.896 420.219 220.01 420.013 220.075 419.789C220.139 419.566 220.151 419.331 220.11 419.102C220.05 418.779 219.886 418.484 219.644 418.262C219.401 418.041 219.093 417.904 218.766 417.873Z" stroke="#A9A9A9" stroke-width="1.05" stroke-miterlimit="10"/>
<path d="M350.288 218.855L358.237 190.914C358.243 190.897 358.252 190.881 358.264 190.867C358.276 190.853 358.291 190.842 358.308 190.834C358.325 190.826 358.343 190.822 358.361 190.821C358.38 190.821 358.398 190.824 358.415 190.83C359.264 191.189 359.955 191.843 360.36 192.67C360.765 193.498 360.857 194.444 360.62 195.335L354.625 217.595C354.456 218.23 354.123 218.81 353.659 219.275C353.345 219.58 352.935 219.768 352.499 219.806C352.063 219.845 351.627 219.731 351.265 219.485L350.288 218.855Z" fill="#A9A9A9"/>
<path d="M341.531 250.125L349.48 222.195C349.482 222.175 349.489 222.156 349.501 222.14C349.512 222.124 349.527 222.111 349.545 222.103C349.563 222.094 349.583 222.09 349.603 222.092C349.623 222.093 349.642 222.1 349.658 222.111C350.509 222.468 351.201 223.121 351.606 223.949C352.011 224.777 352.103 225.725 351.863 226.615L345.857 248.875C345.689 249.511 345.356 250.09 344.891 250.555C344.576 250.857 344.166 251.042 343.731 251.081C343.296 251.119 342.861 251.008 342.497 250.765L341.531 250.125Z" fill="#A9A9A9"/>
<path d="M339.766 155.489C339.829 156.17 340.096 156.817 340.533 157.344C340.97 157.87 341.556 158.253 342.214 158.44C342.873 158.628 343.572 158.612 344.221 158.394C344.87 158.177 345.438 157.768 345.85 157.222C346.263 156.676 346.5 156.018 346.532 155.334C346.563 154.65 346.387 153.973 346.026 153.392C345.666 152.81 345.138 152.351 344.511 152.075C343.885 151.799 343.19 151.719 342.517 151.845C341.67 151.965 340.905 152.416 340.389 153.099C339.874 153.782 339.65 154.641 339.766 155.489Z" fill="#A9A9A9"/>
<path d="M272.724 152.895L302.649 154.365C303.15 154.387 303.639 154.212 304.011 153.875C304.383 153.539 304.607 153.07 304.634 152.569C304.657 152.067 304.479 151.576 304.141 151.204C303.802 150.832 303.33 150.609 302.828 150.585L272.913 149.115C272.413 149.092 271.923 149.267 271.551 149.604C271.18 149.94 270.956 150.41 270.929 150.91C270.906 151.411 271.082 151.9 271.418 152.272C271.754 152.644 272.224 152.867 272.724 152.895Z" fill="#A9A9A9"/>
<path d="M230.945 291.579C235.355 281.846 238.011 279.273 238.515 275.178C238.736 273.393 241.581 265.539 242.799 264.269C244.459 262.575 245.983 260.753 247.356 258.819C248.151 257.636 249.259 256.697 250.557 256.107C251.855 255.518 253.292 255.3 254.706 255.48C259.956 255.869 260.208 260.93 263.411 273.33C266.162 283.904 259.095 294.719 252.984 298.971C247.682 302.667 244.29 302.184 237.234 307.182C230.178 312.18 226.524 301.313 230.945 291.579ZM253.131 293.595C255.214 291.679 256.85 289.329 257.924 286.711C258.998 284.093 259.484 281.271 259.347 278.444C259.339 278.265 259.268 278.095 259.146 277.964C259.024 277.833 258.86 277.749 258.682 277.728C258.505 277.707 258.325 277.749 258.176 277.847C258.027 277.946 257.917 278.094 257.867 278.265C256.532 283.289 254.555 288.121 251.987 292.64C251.897 292.794 251.864 292.975 251.895 293.151C251.926 293.327 252.018 293.487 252.155 293.601C252.292 293.716 252.465 293.778 252.644 293.777C252.823 293.776 252.995 293.712 253.131 293.595Z" fill="#A9A9A9"/>
<path d="M210.628 191.241C210.628 191.241 223.228 198.402 224.446 198.371C225.664 198.339 228.814 196.271 228.814 196.271C228.814 196.271 232.815 200.145 236.973 199.19C241.131 198.234 242.653 196.701 242.653 196.701C242.653 196.701 245.803 198.623 248.733 196.985C251.662 195.347 255.715 190.328 259.401 183.062C263.086 175.796 263.779 170.798 263.149 169.097C262.571 167.779 261.796 166.558 260.85 165.474C260.85 165.474 261.984 160.592 260.419 158.04C258.855 155.489 254.781 152.601 254.781 152.601C254.781 152.601 255.274 148.485 253.636 146.543L199.162 116.03C199.162 116.03 195.907 113.321 193.261 113.793C190.615 114.266 188.232 117.794 188.232 117.794L183.664 115.61C183.664 115.61 186.436 110.444 184.315 106.16C182.194 101.876 168.565 86.9972 162.99 79.7207L158.349 72.8852L158.055 71.3102C158.055 71.3102 160.837 56.4632 153.718 55.2452C153.718 55.2452 148.573 54.8882 137.632 67.3097C126.691 79.7312 114.07 104.354 114.07 104.354C114.07 104.354 103.654 125.879 100.074 139.865C96.4931 153.851 94.5611 164.949 100.798 166.818C100.798 166.818 105.324 168.173 115.005 157.683L116.401 158.093L127.71 157.778L139.701 158.943L147.051 160.119L156.039 162.587L158.328 162.261L162.528 158.828L166.213 161.169C166.213 161.169 163.252 163.563 164.218 166.724C165.184 169.884 177.721 176.457 177.721 176.457L179.023 177.969L177.438 188.858L166.465 229.808C166.465 229.808 162.706 239.667 164.04 242.135C165.373 244.602 176.094 250.703 178.225 250.619C180.357 250.535 188.473 232.853 188.473 232.853L210.628 191.241Z" fill="#1D1C1C"/>
<path d="M184.314 106.14C184.314 106.14 185.122 107.264 185.101 110.34C185.08 113.417 176.208 139.236 165.393 154.136C165.393 154.136 159.429 162.326 158.295 162.305C157.316 162.253 156.341 162.14 155.376 161.969C155.376 161.969 142.492 158.819 135.961 158.63C129.43 158.441 120.694 157.989 120.694 157.989L115.339 158.105L128.401 140.465L137.389 125.009L144.246 111.621L149.779 98.1813L154.294 85.3398L156.31 77.2968L158.221 72.3723L170.748 89.5293L177.636 97.5303L184.314 106.14Z" fill="#1D1C1C"/>
<path d="M188.232 117.751C188.232 117.751 191.256 119.053 191.623 120.197C191.991 121.342 190.731 134.32 182.74 147.056C174.75 159.793 169.258 162.418 169.258 162.418L166.192 161.168C166.192 161.168 164.092 163.069 164.008 165.179C163.924 167.29 165.394 168.844 166.297 170.031C167.2 171.217 178.11 176.331 178.11 176.331C178.11 176.331 179.601 174.986 177.427 173.506C176.28 172.812 175.318 171.85 174.624 170.702L177.354 168.287L180.861 165.578L183.076 166.061L208.182 180.194L213.925 183.964L210.576 191.241C210.576 191.241 221.779 199.241 224.835 198.401C227.89 197.561 237.435 188.846 242.265 182.651C247.095 176.456 253.08 160.003 253.08 160.003L254.97 150.322C254.804 149.256 254.406 148.24 253.803 147.345C253.201 146.451 252.409 145.7 251.484 145.145C248.46 143.591 225.15 130.55 225.15 130.55L203.53 118.559C203.53 118.559 196.317 112.942 193.261 113.75C190.206 114.559 188.232 117.751 188.232 117.751Z" fill="#1D1C1C"/>
<path d="M151.324 61.2729C151.324 61.2729 147.008 60.3174 137.212 74.2614C127.415 88.2054 120.265 102.307 112.862 117.752C107.816 128.619 103.988 140.011 101.449 151.72C101.512 152.266 100.892 159.154 103.444 159.07C105.995 158.986 116.548 151.573 127.951 129.67C139.354 107.767 145.402 93.9069 145.402 93.9069C145.402 93.9069 158.075 65.0214 151.324 61.2729Z" fill="#1D1C1C"/>
<path d="M238.023 300.232L218.755 274.938C218.755 274.938 217.212 272.733 215.71 272.365C213.886 271.782 212.294 270.635 211.164 269.089C210.24 267.693 209.946 266.107 208.623 264.658C207.3 263.209 193.125 249.234 193.125 249.234L185.187 240.172C185.187 240.172 179.202 233.295 177.889 231.709C176.577 230.124 165.363 226.858 164.712 224.433C164.187 222.052 164.404 219.568 165.331 217.314C165.851 216.399 166.43 215.518 167.064 214.678L168.964 214.321L172.975 216.274L177.48 217.566L174.928 214.836L171.138 212.473L170.004 215.466C170.004 215.466 166.161 213.208 166.129 209.88C166.241 207.367 166.744 204.887 167.62 202.53L168.744 200.482C168.543 198.989 168.522 197.477 168.681 195.978C168.908 195.054 169.355 194.2 169.984 193.487C170.613 192.773 171.405 192.223 172.293 191.883C173.49 191.589 176.493 192.46 176.493 192.46L195.781 199.81L196.936 199.663L187.245 191.389C187.245 191.389 180.325 186.664 179.17 186.496C178.675 186.381 178.163 186.356 177.658 186.423L177.406 188.859C177.406 188.859 173.931 186.37 173.437 184.575C172.944 182.779 174.75 178.674 176.377 177.907C177.426 177.422 178.511 177.019 179.622 176.7C179.622 176.7 182.352 176.511 187.455 178.632C192.558 180.753 204.78 190.182 204.78 190.182C204.78 190.182 210.67 194.245 213.6 198.676C216.529 203.107 220.582 210.646 220.582 210.646L227.439 226.144L233.886 241.894L236.385 248.194L248.985 257.361C248.985 257.361 255.925 262.096 256.555 265.383C257.185 268.669 254.077 279.348 254.077 279.348L247.525 293.239C247.525 293.239 243.871 298.71 241.656 299.991C239.44 301.272 238.023 300.232 238.023 300.232Z" fill="#1E1D1D"/>
<path d="M150.442 55.2457C150.447 55.2946 150.447 55.3439 150.442 55.3927C150.321 55.49 150.191 55.5745 150.053 55.6447C148.121 56.5913 146.323 57.7919 144.709 59.2147C141.797 61.7129 139.11 64.4603 136.676 67.4257C133.117 71.6848 129.814 76.1517 126.785 80.8027C121.125 89.4416 116.056 98.4537 111.613 107.777C107.748 115.821 104.396 124.101 101.575 132.568C99.7729 137.815 98.3449 143.184 97.3011 148.633C96.6961 151.659 96.3727 154.734 96.3351 157.82C96.2943 159.006 96.4072 160.192 96.6711 161.348C96.6711 161.495 96.7656 161.653 96.6711 161.789L97.1961 163.774C97.4481 163.868 97.4376 164.12 97.5006 164.32C97.8282 165.397 98.5526 166.309 99.5272 166.872C100.502 167.436 101.654 167.608 102.751 167.354C104.16 167.074 105.507 166.544 106.73 165.79C108.615 164.647 110.374 163.309 111.98 161.8C112.831 161.023 113.65 160.214 114.469 159.395C114.586 159.252 114.736 159.139 114.906 159.064C115.075 158.989 115.26 158.955 115.445 158.965C116.473 158.97 117.5 158.917 118.522 158.807C122.751 158.583 126.992 158.685 131.206 159.112C137.663 159.71 144.058 160.708 150.421 161.936C152.038 162.251 153.665 162.514 155.303 162.776C156.037 162.908 156.784 162.96 157.529 162.934C157.997 162.919 158.454 162.782 158.852 162.535C159.948 161.88 160.957 161.09 161.855 160.183L162.338 159.71L165.142 161.233C165.142 161.516 164.879 161.611 164.732 161.737C164.155 162.265 163.703 162.915 163.409 163.64C163.115 164.366 162.987 165.147 163.035 165.928C163.082 166.71 163.303 167.47 163.682 168.155C164.061 168.839 164.589 169.43 165.226 169.885C165.898 170.347 166.57 170.798 167.273 171.208C169.226 172.363 171.197 173.504 173.185 174.631C174.235 175.219 175.285 175.744 176.335 176.29C176.591 176.39 176.828 176.532 177.038 176.71C177.038 176.951 176.86 176.941 176.744 177.004C176.638 177.07 176.525 177.126 176.408 177.172C175.815 177.417 175.28 177.786 174.842 178.255C174.404 178.725 174.071 179.282 173.867 179.891C173.389 181.108 173.055 182.377 172.87 183.671C172.732 184.446 172.825 185.244 173.137 185.966C173.449 186.688 173.965 187.303 174.623 187.735C175.099 188.062 175.602 188.35 176.125 188.596C176.381 188.665 176.613 188.803 176.797 188.995L176.356 191.483C176.093 191.641 175.883 191.483 175.694 191.483C175.003 191.311 174.302 191.184 173.594 191.105C172.676 190.977 171.741 191.124 170.906 191.525C170.071 191.927 169.374 192.566 168.901 193.363C168.656 193.726 168.455 194.118 168.302 194.528C167.599 196.377 167.482 198.396 167.966 200.314C167.966 200.377 167.966 200.44 167.966 200.566C167.107 201.62 166.526 202.873 166.276 204.209C165.744 205.972 165.451 207.797 165.404 209.638C165.393 210.368 165.562 211.089 165.898 211.738C166.118 212.147 166.328 212.578 166.58 212.956C166.832 213.334 167.168 213.68 167.473 214.006C167.111 214.189 166.761 214.392 166.423 214.615C165.988 214.96 165.63 215.393 165.373 215.885C164.006 218.112 163.443 220.739 163.777 223.33C163.819 223.685 163.889 224.036 163.987 224.38C164.087 224.806 164.284 225.204 164.563 225.543C164.841 225.882 165.194 226.152 165.593 226.333C165.957 226.466 166.294 226.661 166.591 226.91C166.391 227.582 166.192 228.265 165.982 228.947C164.995 232.097 164.144 235.3 163.315 238.492C163.168 239.069 163.052 239.657 162.947 240.235C162.85 240.727 162.871 241.235 163.01 241.717C163.149 242.2 163.401 242.642 163.745 243.007C164.001 243.323 164.281 243.618 164.585 243.889C165.247 244.456 165.898 245.044 166.601 245.548C169.626 247.708 172.884 249.522 176.314 250.955C176.794 251.187 177.314 251.322 177.847 251.354C178.139 251.373 178.432 251.33 178.707 251.229C178.982 251.128 179.232 250.97 179.443 250.766C180.359 249.874 181.154 248.864 181.805 247.763C182.855 245.947 183.905 244.088 184.955 242.219L185.396 241.453C185.806 241.705 185.984 242.125 186.289 242.408C186.615 242.698 186.914 243.018 187.181 243.364C191.295 248.537 195.81 253.379 200.684 257.843C202.385 259.45 204.118 260.993 205.829 262.621C206.669 263.408 207.488 264.217 208.318 265.015C209.038 265.709 209.588 266.561 209.924 267.503C210.193 268.336 210.526 269.147 210.922 269.929C211.369 270.752 212.024 271.443 212.822 271.934C214.125 272.738 215.508 273.403 216.949 273.919C217.305 274.036 217.619 274.255 217.852 274.549C218.503 275.378 219.175 276.197 219.805 277.048C222.839 281.248 225.853 285.364 228.908 289.501C231.271 292.703 233.686 295.874 236.08 299.066C236.47 299.593 236.902 300.088 237.371 300.547C237.599 300.805 237.883 301.006 238.202 301.135C238.521 301.265 238.866 301.318 239.209 301.292C239.561 301.217 239.928 301.254 240.259 301.397L241.886 300.967C241.876 300.947 241.87 300.925 241.868 300.903C241.867 300.881 241.87 300.858 241.878 300.838C241.886 300.817 241.899 300.798 241.914 300.782C241.93 300.766 241.949 300.754 241.97 300.746C243.63 299.786 245.062 298.479 246.17 296.914C247.865 294.674 249.302 292.251 250.454 289.69C253.342 283.39 256.303 276.659 257.206 269.803C257.332 268.847 257.405 267.881 257.468 266.926C257.536 266.269 257.442 265.606 257.195 264.994C257.168 264.937 257.147 264.877 257.132 264.815C256.875 263.717 256.272 262.73 255.41 262.001C252.313 258.736 247.861 256.016 244.385 253.171C242.201 251.365 239.933 249.643 237.676 247.921C237.137 247.503 236.732 246.938 236.51 246.293C235.576 243.742 234.599 241.211 233.623 238.681C232.951 236.938 232.258 235.195 231.523 233.431C230.735 231.499 229.958 229.556 229.139 227.635C228.247 225.535 227.323 223.435 226.388 221.282C224.883 217.894 223.315 214.534 221.684 211.202C220.634 209.186 219.752 207.149 218.629 205.207C217.505 203.264 216.34 201.059 214.954 199.127C213.675 197.207 212.174 195.445 210.481 193.877C210.404 193.799 210.334 193.714 210.271 193.625C210.485 193.188 210.731 192.767 211.006 192.365C211.268 192.365 211.426 192.502 211.594 192.617C213.274 193.667 214.996 194.581 216.728 195.515C217.999 196.187 219.238 196.912 220.498 197.615C221.464 198.13 222.43 198.665 223.427 199.075C223.899 199.248 224.405 199.306 224.904 199.244C225.402 199.182 225.879 199.002 226.294 198.718C226.913 198.361 227.501 197.951 228.11 197.563L228.614 197.29C229.853 197.825 231.082 198.34 232.31 198.875C232.835 199.096 233.36 199.306 233.885 199.495C235.575 200.097 237.433 200.026 239.072 199.295C240.266 198.805 241.406 198.193 242.474 197.468C243.206 197.72 243.958 197.91 244.721 198.035C246.05 198.267 247.416 198.14 248.68 197.668C249.543 197.303 250.33 196.78 251 196.124C252.131 195.053 253.184 193.902 254.15 192.68C256.814 189.332 259.11 185.706 260.996 181.865C261.807 180.249 262.457 178.558 262.939 176.815C263.338 175.366 263.768 173.938 264.073 172.468C264.265 171.521 264.311 170.551 264.209 169.591C264.086 168.502 263.669 167.467 263.002 166.598C262.603 166.073 262.172 165.548 261.763 165.076C261.742 164.798 261.781 164.518 261.878 164.257C262.128 163.097 262.258 161.915 262.267 160.729C262.27 159.631 261.94 158.559 261.322 157.652C260.761 156.863 260.132 156.125 259.442 155.447C258.302 154.27 257.088 153.165 255.809 152.14C255.809 151.636 255.809 151.09 255.809 150.586C255.809 150.334 255.809 150.092 255.809 149.84C255.704 148.46 255.112 147.161 254.14 146.176C253.559 145.524 252.874 144.974 252.113 144.548C243.629 139.837 235.159 135.109 226.703 130.363L197.125 113.867C196.378 113.425 195.581 113.072 194.752 112.817C194.478 112.759 194.196 112.759 193.922 112.817C192.715 113.013 191.582 113.524 190.636 114.298C190.076 114.745 189.549 115.233 189.061 115.757C188.65 116.113 188.357 116.586 188.221 117.112L184.714 115.505C184.672 115.282 184.698 115.052 184.787 114.844C185.203 113.018 185.515 111.171 185.722 109.31C185.845 108.223 185.632 107.124 185.113 106.16C184.719 105.427 184.27 104.725 183.769 104.06C182.32 102.034 180.734 100.112 179.117 98.2117C176.272 94.8727 173.384 91.5547 170.591 88.1632C166.64 83.3584 162.973 78.3274 159.608 73.0957C159.262 72.5497 158.873 72.0457 158.506 71.4787C158.632 70.3132 158.779 69.1372 158.894 67.9612C159.151 65.7286 159.151 63.4739 158.894 61.2412C158.762 59.8835 158.377 58.5624 157.76 57.3457C157.401 56.5602 156.82 55.897 156.089 55.4379C155.357 54.9789 154.507 54.7442 153.644 54.7627C153.487 54.7627 153.193 54.9307 153.151 54.5632L150.442 55.2457ZM209.41 195.19C210.354 196.006 211.216 196.914 211.982 197.899C212.728 198.854 213.368 199.894 214.019 200.912C216.742 205.353 219.197 209.953 221.369 214.688C222.524 217.103 223.658 219.539 224.729 222.038C225.8 224.537 226.903 227.005 227.974 229.493C229.129 232.188 230.27 234.89 231.397 237.599C232.1 239.269 232.762 240.949 233.413 242.639C234.05 244.461 234.782 246.249 235.607 247.994C235.738 248.276 235.932 248.524 236.174 248.719C236.867 249.254 237.55 249.769 238.274 250.325C242.275 253.36 247.189 256.363 250.874 259.775C251.924 260.752 252.974 261.76 254.024 262.789C254.624 263.341 255.084 264.028 255.367 264.793C255.65 265.557 255.748 266.378 255.652 267.188C255.578 267.808 255.536 268.427 255.473 269.047C254.884 272.89 253.981 276.68 252.775 280.376C251.536 284.576 249.446 288.22 247.357 292.073C246.364 293.954 245.159 295.716 243.766 297.323C243.054 298.156 242.209 298.865 241.267 299.423C241.008 299.597 240.72 299.721 240.416 299.791C240.002 299.934 239.554 299.944 239.134 299.82C238.714 299.695 238.344 299.443 238.075 299.098C237.728 298.625 237.329 298.184 236.972 297.712C233.119 292.651 229.349 287.527 225.601 282.403C223.385 279.389 221.128 276.407 218.681 273.583C218.147 272.929 217.462 272.414 216.686 272.081C215.71 271.682 214.754 271.21 213.82 270.716C213.066 270.328 212.455 269.71 212.077 268.952C211.897 268.59 211.746 268.214 211.625 267.829C211.168 266.242 210.315 264.797 209.147 263.629C208.885 263.377 208.643 263.083 208.37 262.831C206.711 261.266 205.052 259.681 203.383 258.169C199.298 254.44 195.418 250.493 191.759 246.346C189.659 243.973 187.675 241.547 185.648 239.153C184.136 237.368 182.614 235.583 181.144 233.777C179.916 232.233 178.354 230.988 176.576 230.134C174.77 229.273 173.006 228.349 171.2 227.498C170.037 226.894 168.837 226.361 167.609 225.902C167.057 225.677 166.549 225.357 166.108 224.957C165.842 224.742 165.625 224.475 165.469 224.171C165.314 223.867 165.224 223.534 165.205 223.193C165.034 221.098 165.426 218.996 166.339 217.103C166.505 216.729 166.716 216.376 166.969 216.053C167.125 215.836 167.342 215.671 167.593 215.58C167.844 215.488 168.117 215.474 168.376 215.539C168.859 215.654 169.342 215.759 169.814 215.917C172.724 216.856 175.577 217.96 178.361 219.224C178.813 219.424 179.264 219.644 179.737 219.812C180.173 219.975 180.584 220.202 180.955 220.484L183.349 222.122C183.696 222.383 184.105 222.549 184.535 222.605C184.536 222.441 184.471 222.282 184.357 222.164C184.059 221.731 183.706 221.339 183.307 220.999C182.026 219.854 180.755 218.699 179.453 217.586C178.383 216.631 177.254 215.743 176.072 214.93C173.872 213.444 171.586 212.091 169.226 210.877C169.079 210.803 168.953 210.646 168.743 210.74C169.334 211.352 169.962 211.927 170.623 212.462C170.381 213.071 170.15 213.67 169.898 214.279C169.898 214.279 169.804 214.342 169.72 214.394C169.447 214.037 169.195 213.659 168.89 213.344C168.581 212.976 168.252 212.625 167.903 212.294C167.331 211.707 167.011 210.919 167.011 210.1C166.995 209.851 166.995 209.602 167.011 209.354C167.163 207.206 167.601 205.087 168.313 203.054C168.431 202.684 168.597 202.331 168.806 202.004C168.918 201.821 169.071 201.666 169.253 201.553C169.436 201.44 169.642 201.372 169.856 201.353C170.324 201.321 170.793 201.375 171.242 201.511C172.511 201.842 173.743 202.303 174.917 202.886C176.314 203.569 177.689 204.314 179.033 205.091C179.326 205.274 179.635 205.429 179.957 205.553C181.721 206.173 183.475 206.834 185.207 207.559C185.323 207.611 185.459 207.758 185.638 207.559C185.427 207.368 185.206 207.19 184.976 207.023C181.791 204.828 178.442 202.879 174.959 201.196C174.009 200.723 173.013 200.346 171.988 200.072C171.33 199.873 170.648 199.767 169.961 199.757C169.883 199.775 169.801 199.775 169.723 199.757C169.645 199.739 169.572 199.703 169.51 199.652V199.6C169.472 199.512 169.444 199.42 169.426 199.327C169.228 197.935 169.35 196.517 169.783 195.179C169.929 194.766 170.13 194.374 170.381 194.014C170.676 193.55 171.092 193.176 171.584 192.931C172.077 192.687 172.626 192.582 173.174 192.628C173.67 192.654 174.162 192.728 174.644 192.848C175.621 193.069 176.587 193.31 177.542 193.594C181.699 194.829 185.765 196.352 189.712 198.151C191.512 199.009 193.355 199.773 195.235 200.44C196.476 200.855 197.686 201.357 198.857 201.941C199.279 202.144 199.686 202.375 200.075 202.634C201.152 203.38 202.105 204.291 202.9 205.333C202.994 205.469 203.068 205.679 203.32 205.606C203.097 204.631 202.725 203.696 202.217 202.834C201.783 202.071 201.147 201.442 200.38 201.017C200.079 200.846 199.766 200.695 199.445 200.566C199.123 200.448 198.835 200.253 198.605 199.999C196.677 198.048 194.622 196.227 192.452 194.549C189.318 192.027 186.04 189.689 182.635 187.546C181.02 186.523 179.205 185.861 177.311 185.603C176.951 185.512 176.575 185.504 176.212 185.579C175.848 185.653 175.506 185.809 175.211 186.034C174.917 185.778 174.694 185.449 174.565 185.081C174.437 184.713 174.406 184.317 174.476 183.934C174.619 182.946 174.847 181.973 175.159 181.025C175.323 180.406 175.643 179.839 176.088 179.378C176.532 178.917 177.087 178.577 177.7 178.39C179.038 177.866 180.473 177.633 181.908 177.706C183.343 177.778 184.747 178.154 186.026 178.81C186.614 179.104 187.181 179.44 187.748 179.765C191.864 182.128 195.77 184.816 199.634 187.567M189.313 117.521C189.932 116.954 190.552 116.387 191.182 115.831C191.687 115.366 192.252 114.971 192.862 114.655C193.233 114.419 193.667 114.301 194.107 114.314C194.546 114.327 194.972 114.471 195.329 114.728C195.722 114.982 196.129 115.213 196.547 115.421L226.43 132.137L245.141 142.637C247.367 143.887 249.593 145.147 251.84 146.375C252.639 146.804 253.31 147.438 253.783 148.213C254.052 148.634 254.204 149.12 254.224 149.62C254.28 150.711 254.22 151.806 254.045 152.885C253.856 153.935 253.657 154.985 253.415 156.035C252.558 159.552 251.428 162.995 250.034 166.336C248.376 170.512 246.389 174.55 244.091 178.411C241.26 183.269 237.64 187.623 233.381 191.294C231.065 193.276 228.65 195.141 226.147 196.88C225.895 197.059 225.632 197.237 225.37 197.395C225.128 197.541 224.859 197.636 224.579 197.676C224.3 197.716 224.015 197.699 223.742 197.626C223.198 197.481 222.676 197.265 222.188 196.985L216.256 193.604L212.266 191.347C212.059 191.277 211.879 191.145 211.751 190.969C211.808 190.696 211.923 190.438 212.087 190.213C212.854 188.638 213.641 187.063 214.397 185.509C214.561 185.171 214.695 184.82 214.796 184.459C214.86 184.281 214.86 184.087 214.794 183.91C214.729 183.734 214.603 183.586 214.439 183.493C214.051 183.23 213.694 182.926 213.305 182.674C210.953 181.141 208.601 179.597 206.228 178.106C201.041 174.862 195.728 171.932 190.31 169.003C188.284 167.89 186.226 166.85 184.147 165.853C183.59 165.58 183.013 165.338 182.425 165.118C182.035 164.952 181.61 164.888 181.19 164.932C180.769 164.976 180.366 165.127 180.02 165.37L179.705 165.559C178.028 166.695 176.435 167.952 174.938 169.318C174.71 169.532 174.502 169.768 174.319 170.021C174.155 170.232 174.059 170.487 174.044 170.754C174.029 171.02 174.095 171.285 174.235 171.512C174.432 171.868 174.683 172.19 174.98 172.468C175.526 172.972 176.03 173.518 176.65 173.969C177.109 174.339 177.512 174.774 177.847 175.261C177.92 175.366 177.983 175.471 177.847 175.586C177.723 175.597 177.6 175.564 177.5 175.492C176.902 175.166 176.282 174.851 175.694 174.515L166.927 169.486C166.7 169.379 166.497 169.229 166.328 169.045C166.076 168.73 165.803 168.425 165.551 168.11C165.117 167.574 164.829 166.934 164.717 166.253C164.604 165.571 164.671 164.873 164.911 164.225C165.235 163.364 165.603 162.519 166.013 161.695C166.885 162.199 167.798 162.503 168.659 162.944C168.793 163.018 168.941 163.062 169.093 163.073C169.245 163.084 169.398 163.062 169.541 163.007C169.772 162.913 170.003 162.808 170.224 162.692C171.198 162.133 172.095 161.448 172.891 160.655C176.476 157.27 179.607 153.434 182.204 149.242C184.302 145.769 186.198 142.179 187.885 138.49C189.149 135.876 190.202 133.165 191.035 130.384C191.94 127.314 192.417 124.134 192.452 120.934V120.661C192.471 120.223 192.36 119.79 192.132 119.416C191.903 119.041 191.569 118.744 191.171 118.561C190.667 118.34 190.195 118.025 189.701 117.752C189.491 117.71 189.344 117.658 189.271 117.511L189.313 117.521ZM116.695 157.253C116.714 157.033 116.82 156.829 116.989 156.686C120.161 153.08 123.124 149.293 125.861 145.346C130.452 138.762 134.659 131.919 138.461 124.85C143.239 115.986 147.437 106.821 151.03 97.4137C154.027 89.8756 156.36 82.09 158.002 74.1457C158.002 74.0197 158.002 73.8412 158.212 73.8097C158.873 74.8597 159.503 75.9097 160.186 76.9597C163.097 81.3524 166.277 85.5605 169.709 89.5597C172.177 92.4892 174.718 95.3662 177.227 98.2642C179.295 100.638 181.24 103.116 183.055 105.688C183.467 106.243 183.819 106.842 184.105 107.473C184.247 107.803 184.304 108.164 184.273 108.523C184.178 109.195 184.084 109.877 183.979 110.56C183.423 113.773 182.597 116.935 181.511 120.01C179.611 125.69 177.133 131.15 174.739 136.631C174.172 137.954 173.594 139.267 173.027 140.579C173.027 140.663 172.933 140.737 173.027 140.873C173.402 140.583 173.722 140.227 173.972 139.823C174.812 138.469 175.631 137.104 176.471 135.749C177.374 134.29 178.184 132.775 178.897 131.213C180.913 126.784 182.628 122.223 184.031 117.563C184.081 117.236 184.203 116.924 184.388 116.65C186.667 117.626 188.84 118.834 191.035 119.968C191.035 120.682 191.035 121.333 191.035 121.984C191.035 122.635 190.877 123.538 190.762 124.304C190.167 128.128 189.11 131.866 187.612 135.434C186.192 138.797 184.594 142.081 182.824 145.273C180.991 148.643 178.843 151.831 176.408 154.796C174.914 156.64 173.29 158.373 171.547 159.983C170.849 160.634 170.085 161.211 169.268 161.705C167.247 160.788 165.277 159.761 163.367 158.629C163.489 158.341 163.676 158.086 163.913 157.883C165.515 155.974 166.922 153.909 168.113 151.72C168.471 151.053 168.752 150.349 168.953 149.62C168.953 149.494 169.1 149.326 168.88 149.231C168.262 149.756 167.712 150.356 167.242 151.016L164.785 154.313C163.752 155.723 162.648 157.08 161.477 158.377C160.883 159.057 160.225 159.679 159.514 160.235C157.823 161.495 158.233 161.443 156.112 161.18C154.474 160.981 152.846 160.676 151.229 160.34C145.465 159.133 139.679 158.24 133.799 157.558C129.621 157.03 125.41 156.802 121.199 156.875C119.677 156.98 118.186 157.096 116.653 157.243L116.695 157.253ZM98.1306 162.346C98.1306 162.209 98.0466 161.905 97.9941 161.6C97.6972 159.814 97.6091 157.999 97.7316 156.193C97.9306 152.862 98.4047 149.554 99.1491 146.302C100.48 140.338 102.216 134.473 104.347 128.746C109.999 113.361 117.256 98.6152 125.998 84.7507C129.309 79.4245 132.956 74.3147 136.918 69.4522C139.354 66.4122 142.034 63.5749 144.929 60.9682C146.537 59.4888 148.326 58.2188 150.253 57.1882C151.222 56.6405 152.295 56.3007 153.403 56.1907C153.983 56.1362 154.566 56.2509 155.082 56.5212C155.599 56.7914 156.025 57.2054 156.311 57.7132C156.797 58.5123 157.128 59.3957 157.288 60.3172C157.506 61.5164 157.626 62.7315 157.645 63.9502C157.645 66.5334 157.424 69.1119 156.983 71.6572C156.721 73.3897 156.374 75.0907 155.986 76.8022C154.501 83.1794 152.575 89.4455 150.221 95.5552C144.849 109.744 138.111 123.377 130.103 136.264C123.32 146.228 122.69 147.583 118.385 152.822C115.929 155.888 113.225 158.747 110.3 161.369C108.713 162.818 106.949 164.06 105.05 165.065C104.081 165.612 103.008 165.948 101.9 166.052C101.368 166.096 100.834 165.997 100.354 165.764C99.8741 165.531 99.4651 165.174 99.1701 164.729C98.6847 164.003 98.3327 163.196 98.1306 162.346ZM255.379 154.345C255.576 154.379 255.753 154.488 255.872 154.649C256.702 155.447 257.542 156.235 258.35 157.054C258.806 157.525 259.237 158.019 259.642 158.534C260.155 159.172 260.423 159.973 260.398 160.792C260.382 161.694 260.287 162.594 260.114 163.48C259.81 165.107 259.442 166.714 259.001 168.31C257.664 173.344 255.74 178.204 253.268 182.789C250.677 187.611 247.099 191.832 242.768 195.179C241.571 196.122 240.276 196.931 238.904 197.594C238.158 197.988 237.339 198.226 236.498 198.293C235.656 198.36 234.81 198.254 234.011 197.983C232.741 197.531 231.512 197.006 230.284 196.481C230.194 196.422 230.113 196.351 230.042 196.271C230.546 195.883 231.092 195.526 231.512 195.148C233.056 193.877 234.536 192.544 235.975 191.168C239.571 187.739 242.705 183.856 245.299 179.618C247.479 175.98 249.388 172.186 251.011 168.268C252.894 163.921 254.302 159.383 255.211 154.733C255.284 154.597 255.337 154.46 255.379 154.324V154.345ZM175.642 170.746C177.103 169.381 178.654 168.115 180.283 166.955C181.28 166.273 181.333 166.231 182.509 166.756C183.916 167.407 185.333 168.079 186.709 168.803C195.623 173.507 204.359 178.516 212.791 184.06C212.896 184.123 212.98 184.207 213.074 184.27C213.022 184.555 212.911 184.827 212.749 185.068C212.602 185.33 212.57 185.666 212.266 185.813C211.793 185.456 211.363 185.099 210.89 184.763C209.116 183.608 207.352 182.422 205.535 181.319C200.285 178.169 194.888 175.187 189.565 172.121C188.612 171.582 187.614 171.125 186.583 170.756C186.194 170.62 185.869 170.662 185.837 170.851C185.806 171.04 186.058 171.281 186.247 171.428C187.141 172.11 188.077 172.734 189.05 173.297C190.933 174.403 192.823 175.495 194.72 176.573C198.689 178.862 202.669 181.141 206.575 183.566L211.741 186.716C211.741 186.716 211.793 186.811 211.825 186.884C210.974 188.638 210.04 190.37 209.063 192.071C208.99 192.197 208.937 192.365 208.717 192.365C208.034 191.809 207.352 191.221 206.617 190.664C202.889 187.724 199.025 184.984 195.067 182.327C192.536 180.616 189.922 179.02 187.255 177.518C185.185 176.334 182.805 175.807 180.43 176.006C180.211 176.073 179.977 176.073 179.758 176.006C179.601 175.184 179.215 174.423 178.645 173.812C178.33 173.465 177.994 173.14 177.647 172.825C177.112 172.342 176.597 171.88 176.041 171.397C175.831 171.237 175.688 171.005 175.642 170.746ZM184.157 240.046C184.113 240.172 184.06 240.294 184 240.413C182.845 242.629 181.648 244.813 180.367 246.955C179.999 247.564 179.579 248.152 179.17 248.729C178.981 248.979 178.778 249.218 178.561 249.443C178.448 249.574 178.3 249.67 178.134 249.72C177.969 249.771 177.793 249.773 177.626 249.727C177.203 249.621 176.792 249.473 176.398 249.286C173.473 248.035 170.677 246.502 168.05 244.708C167.089 244.07 166.186 243.35 165.352 242.555C164.239 241.505 164.092 241.138 164.438 239.657C164.785 238.177 165.194 236.57 165.583 235.037C166.234 232.507 167.021 230.008 167.756 227.519C167.956 227.507 168.153 227.567 168.313 227.687C170.927 229 173.563 230.323 176.167 231.625C177.543 232.298 178.758 233.261 179.726 234.449L180.377 235.247L183.842 239.521C183.958 239.731 184.126 239.836 184.157 240.109V240.046ZM244.007 196.366C244.123 196.019 244.375 195.914 244.564 195.767C248.091 192.922 251.103 189.491 253.468 185.624C255.758 181.866 257.624 177.866 259.033 173.696C259.733 171.757 260.352 169.794 260.891 167.806C260.954 167.575 260.891 167.302 261.185 167.155C261.819 167.845 262.226 168.714 262.351 169.643C262.488 170.54 262.434 171.456 262.193 172.331C261.826 173.843 261.427 175.345 261.038 176.857C260.643 178.306 260.105 179.713 259.432 181.057C257.431 185.093 254.964 188.882 252.082 192.344C251.452 193.111 250.748 193.825 250.066 194.549C249.613 195.026 249.114 195.455 248.575 195.83C248.063 196.185 247.478 196.422 246.863 196.523C245.903 196.674 244.924 196.642 243.976 196.429L244.007 196.366ZM195.025 198.991L192.284 197.71C187.662 195.452 182.861 193.58 177.931 192.113C177.731 192.05 177.49 192.113 177.364 191.84C177.475 190.279 177.829 188.745 178.414 187.294C178.729 187.378 179.065 187.451 179.38 187.556C179.765 187.686 180.141 187.844 180.503 188.029C181.081 188.323 181.658 188.648 182.215 188.995C186.688 191.84 190.926 195.038 194.888 198.56C194.962 198.634 195.088 198.697 195.025 198.991ZM171.431 213.197C172.864 214.161 174.219 215.235 175.484 216.41C173.91 215.954 172.366 215.397 170.864 214.741C171.022 214.217 171.208 213.701 171.421 213.197H171.431ZM176.051 186.727L177.101 187.063C177.101 187.336 177.017 187.556 176.975 187.84C176.551 187.58 176.223 187.189 176.041 186.727H176.051Z" fill="#A9A9A9"/>
<path d="M187.308 210.521C188.458 211.187 189.551 211.95 190.573 212.799C191.61 213.602 192.456 214.624 193.051 215.792C193.136 215.721 193.199 215.626 193.23 215.519C193.262 215.413 193.262 215.3 193.23 215.193C193.144 214.385 192.867 213.609 192.422 212.93C191.976 212.251 191.375 211.687 190.668 211.287C189.93 210.884 189.165 210.533 188.379 210.237C187.896 210.069 187.875 210.09 187.308 210.521Z" fill="#A9A9A9"/>
<path d="M150.222 60.5795C149.441 60.8062 148.703 61.161 148.038 61.6295C146.854 62.4406 145.747 63.3579 144.73 64.37C142.435 66.6609 140.312 69.1176 138.378 71.72C134.765 76.4966 131.42 81.4708 128.361 86.6195C120.177 100.202 113.179 114.465 107.445 129.249C105.564 134.057 103.948 138.965 102.604 143.949C101.845 146.704 101.298 149.512 100.966 152.349C100.782 153.807 100.782 155.281 100.966 156.738C101.046 157.293 101.212 157.832 101.46 158.334C101.662 158.815 102.025 159.212 102.486 159.457C102.947 159.701 103.478 159.78 103.99 159.678C104.697 159.554 105.371 159.29 105.975 158.901C106.973 158.324 107.906 157.641 108.757 156.864C110.156 155.626 111.474 154.3 112.705 152.895C115.83 149.235 118.717 145.377 121.347 141.345C126.444 133.67 131.096 125.709 135.28 117.5C139.995 108.417 144.167 99.0626 147.775 89.486C149.473 85.016 150.935 80.4597 152.154 75.836C152.907 73.0837 153.434 70.2743 153.729 67.436C153.86 66.1653 153.86 64.8846 153.729 63.614C153.65 62.9947 153.473 62.3921 153.204 61.829C152.991 61.3135 152.597 60.8936 152.096 60.6481C151.595 60.4026 151.022 60.3483 150.484 60.4955L150.222 60.5795ZM129.4 125.48C129.316 125.648 129.232 125.816 129.138 125.984C127.657 128.619 126.135 131.234 124.549 133.817C121.429 139.002 118.011 144.001 114.312 148.79C112.471 151.195 110.442 153.449 108.243 155.531C107.45 156.278 106.593 156.952 105.681 157.547C105.162 157.899 104.587 158.158 103.98 158.313C103.849 158.371 103.707 158.399 103.564 158.395C103.422 158.391 103.282 158.354 103.155 158.289C103.028 158.223 102.917 158.13 102.831 158.016C102.745 157.903 102.685 157.771 102.657 157.631C102.45 157.075 102.326 156.491 102.289 155.898C102.214 154.778 102.238 153.654 102.363 152.538C102.649 150.091 103.105 147.667 103.728 145.283C104.98 140.42 106.505 135.632 108.295 130.94C111.481 122.538 115.105 114.309 119.152 106.286C123.283 97.9524 127.868 89.8517 132.886 82.0205C135.517 77.8585 138.384 73.8514 141.475 70.019C143.125 67.9436 144.945 66.0084 146.914 64.2335C147.647 63.5601 148.454 62.9719 149.319 62.48C149.698 62.261 150.099 62.0816 150.516 61.9445C151.335 61.682 151.744 61.9445 152.017 62.7215C152.221 63.3109 152.341 63.9258 152.374 64.5485C152.436 66.4206 152.291 68.2939 151.944 70.1345C151.254 73.9379 150.3 77.6886 149.088 81.359C146.372 89.7561 143.128 97.973 139.375 105.96C139.316 106.186 139.183 106.386 138.997 106.527L138.136 106.349C137.498 106.211 136.847 106.141 136.194 106.139C135.434 106.127 134.693 106.375 134.094 106.842C133.773 107.085 133.468 107.348 133.18 107.63C132.591 108.235 132.053 108.888 131.574 109.583C130.043 111.828 128.768 114.237 127.773 116.765C127.447 117.51 127.185 118.277 126.922 119.043C126.74 119.574 126.62 120.123 126.565 120.681C126.501 121.418 126.678 122.154 127.069 122.781C127.668 123.821 128.459 124.737 129.4 125.48ZM130.062 124.062C129.529 123.517 129.044 122.927 128.613 122.298C128.406 122.043 128.265 121.742 128.201 121.42C128.137 121.098 128.152 120.765 128.245 120.45C128.392 119.946 128.518 119.4 128.686 118.928C129.378 117.09 130.17 115.292 131.059 113.541C131.655 112.338 132.34 111.18 133.107 110.076C133.543 109.434 134.046 108.839 134.608 108.302C134.95 107.932 135.404 107.685 135.9 107.598C136.734 107.525 137.575 107.629 138.367 107.903C137.874 109.394 133.516 118.035 130.545 123.453C130.419 123.663 130.366 123.926 130.062 124.062Z" fill="#A9A9A9"/>
<path d="M113.745 77.2426L99.6751 17.1406L79.7881 26.4856L113.745 77.2426Z" stroke="#A9A9A9" stroke-width="1.05" stroke-miterlimit="10"/>
<path d="M100.903 100.825L70.1803 63.0249L51.7318 91.9104L100.903 100.825Z" stroke="#A9A9A9" stroke-width="1.05" stroke-miterlimit="10"/>
<path d="M86.7588 124.807L53.1063 125.489L55.1643 136.42L86.7588 124.807Z" stroke="#A9A9A9" stroke-width="1.05" stroke-miterlimit="10"/>
<path opacity="0.5" d="M242.626 352.309L173.019 345.325L171.672 349.729L241.438 356.558L242.626 352.309Z" fill="#A9A9A9"/>
<path opacity="0.5" d="M221.99 359.636L170.08 354.155L168.733 358.548L220.813 363.895L221.99 359.636Z" fill="#A9A9A9"/>
<path d="M268.468 363.258C267.849 362.632 267.46 361.814 267.367 360.938C267.3 359.846 267.663 358.772 268.376 357.943C269.09 357.114 270.099 356.597 271.188 356.5C272.072 356.389 272.969 356.562 273.748 356.994C274.025 357.147 274.282 357.331 274.515 357.539C275.102 358.066 276.137 358.197 276.833 357.825C277.337 357.555 277.889 357.389 278.457 357.334C279.545 357.206 280.64 357.507 281.508 358.174C282.377 358.842 282.951 359.822 283.107 360.906C283.179 361.732 282.994 362.561 282.578 363.279C282.162 363.997 281.534 364.568 280.781 364.916L274.76 368.682C274.35 368.932 273.86 369.016 273.39 368.916C272.921 368.816 272.507 368.54 272.235 368.144L268.468 363.258Z" fill="#DC2626"/>
<path opacity="0.5" d="M177.21 372.401L176.501 371.251C176.742 370.791 176.9 370.292 176.965 369.776C177.317 367.037 175.029 364.489 171.852 364.081C168.676 363.673 165.819 365.562 165.467 368.301C165.116 371.04 167.402 373.598 170.579 374.006C172.066 374.209 173.577 373.873 174.839 373.06L176.277 373.573C176.432 373.631 176.603 373.639 176.763 373.595C176.924 373.55 177.066 373.457 177.17 373.326C177.273 373.196 177.333 373.037 177.34 372.87C177.348 372.704 177.302 372.54 177.21 372.401Z" fill="#A9A9A9"/>
<path d="M392.264 292.833L397.514 276.8C397.548 276.731 397.565 276.656 397.565 276.579C397.565 276.503 397.548 276.427 397.514 276.359C397.223 275.851 396.813 275.421 396.319 275.107C395.825 274.792 395.263 274.602 394.679 274.553L390.238 274.08L387.781 273.818L387.886 273.398C388.033 272.82 388.159 272.348 388.306 271.833C388.726 270.591 388.852 269.268 388.673 267.969C388.548 267.121 388.297 266.296 387.928 265.523C387.473 264.6 386.709 263.867 385.769 263.45C384.828 263.034 383.772 262.961 382.783 263.244C382.174 263.433 382.079 263.675 382.069 263.916L381.964 268.2C381.971 268.84 381.772 269.466 381.397 269.985C380.462 271.319 379.622 272.558 378.751 273.839L377.564 275.571H377.165L375.821 275.403H375.38H375.191H374.866L370.75 274.973L368.083 274.7C367.865 274.673 367.643 274.691 367.432 274.752C367.221 274.814 367.025 274.917 366.854 275.057C366.684 275.193 366.543 275.361 366.439 275.552C366.334 275.743 366.268 275.953 366.245 276.17L364.649 290.166C364.621 290.387 364.637 290.611 364.696 290.826C364.756 291.04 364.858 291.241 364.996 291.416C365.24 291.697 365.567 291.892 365.93 291.972H366.151L373.501 292.749H373.648L374.299 292.812C374.498 292.834 374.699 292.792 374.873 292.691C375.046 292.591 375.184 292.439 375.265 292.256L375.38 292.014L386.174 293.159C387.466 293.306 388.757 293.442 390.038 293.558C390.786 293.629 391.533 293.423 392.138 292.98L392.264 292.833Z" fill="#1E1D1D" stroke="#A9A9A9" stroke-width="1.05" stroke-miterlimit="10"/>
<path d="M374.269 292.897L377.482 275.572" stroke="#A9A9A9" stroke-width="1.05" stroke-miterlimit="10"/>
<path d="M154.568 251.595L149.812 236.979C149.789 236.914 149.753 236.855 149.706 236.804C149.659 236.753 149.602 236.713 149.539 236.685C149.051 236.466 148.517 236.369 147.982 236.402C147.448 236.435 146.93 236.597 146.473 236.874L142.945 238.911L141.002 240.045L140.845 239.678C140.645 239.174 140.467 238.743 140.32 238.302C139.956 237.164 139.338 236.123 138.514 235.257C137.965 234.697 137.335 234.223 136.645 233.85C135.818 233.415 134.866 233.281 133.951 233.473C133.037 233.664 132.218 234.169 131.636 234.9C131.279 235.373 131.342 235.593 131.468 235.772L133.694 238.995C134.036 239.466 134.223 240.031 134.23 240.612C134.23 242.103 134.303 243.468 134.345 244.875L134.398 246.797L134.083 246.965L133.033 247.574L132.686 247.773L132.539 247.857L132.277 248.015L129.011 249.905L126.911 251.133C126.74 251.232 126.589 251.363 126.468 251.52C126.348 251.677 126.259 251.856 126.208 252.047C126.102 252.436 126.155 252.851 126.355 253.202L132.865 264.468C132.96 264.646 133.09 264.802 133.247 264.929C133.404 265.055 133.584 265.148 133.778 265.203C134.109 265.281 134.456 265.248 134.765 265.109C134.832 265.086 134.896 265.054 134.954 265.014L140.761 261.665L140.876 261.591L141.391 261.287C141.549 261.196 141.674 261.058 141.749 260.892C141.824 260.727 141.846 260.541 141.811 260.363L141.758 260.121L150.337 255.165C151.387 254.577 152.384 253.989 153.392 253.38C153.983 253.038 154.425 252.488 154.631 251.837L154.568 251.595Z" fill="#1E1D1D" stroke="#A9A9A9" stroke-width="1.05" stroke-miterlimit="10"/>
<path d="M134.083 246.984L141.748 260.382" stroke="#A9A9A9" stroke-width="1.05" stroke-miterlimit="10"/>
<defs>
<radialGradient id="paint0_radial_1_718" cx="0" cy="0" r="1" gradientUnits="userSpaceOnUse" gradientTransform="translate(268.5 267.5) rotate(90) scale(267.5 268.5)">
<stop stop-color="#D9D9D9"/>
<stop offset="1" stop-color="#D9D9D9" stop-opacity="0"/>
</radialGradient>
<clipPath id="clip0_1_718">
<rect width="21" height="21" fill="white" transform="translate(113.001 318)"/>
</clipPath>
</defs>
</svg>
