<svg width="140" height="141" viewBox="0 0 140 141" fill="none" xmlns="http://www.w3.org/2000/svg">
<g clip-path="url(#clip0_1_816)">
<path d="M42.1164 28.4686L42.1179 28.467C49.5268 20.9276 59.4318 16.7739 70.0004 16.7739C91.5552 16.7739 109.09 34.3086 109.09 55.8637C109.09 77.4187 91.5552 94.9534 70.0004 94.9534C48.4456 94.9534 30.9106 77.4184 30.9106 55.8637C30.9106 48.823 32.8027 41.9209 36.3837 35.9034M42.1164 28.4686L40.167 28.6086C39.6553 28.1082 39.6459 27.2877 40.1462 26.7756L40.2653 26.6538C40.2655 26.6536 40.2657 26.6533 40.266 26.6531C48.1722 18.6081 58.728 14.1816 70.0004 14.1816C92.9831 14.1816 111.682 32.8812 111.682 55.8639C111.682 78.8467 92.9829 97.546 70.0001 97.546C47.0174 97.546 28.3184 78.8467 28.3184 55.8639C28.3184 48.3554 30.3375 40.9947 34.156 34.5778L34.156 34.5778C34.522 33.9629 35.3171 33.7607 35.9328 34.1269C36.5478 34.4928 36.7498 35.2879 36.3837 35.9034M42.1164 28.4686L42 28.5876M42.1164 28.4686L36.3162 33.4823C37.2874 34.06 37.606 35.3157 37.0282 36.2869M36.3837 35.9034L37.0282 36.2869M36.3837 35.9034L37.0282 36.2869M37.0282 36.2869C33.5167 42.1877 31.6606 48.9572 31.6606 55.8637C31.6606 77.0042 48.8598 94.2034 70.0004 94.2034C91.1409 94.2034 108.34 77.0045 108.34 55.8637C108.34 34.7228 91.1409 17.5239 70.0004 17.5239C59.633 17.5239 49.9208 21.5968 42.6528 28.9927L42.5363 29.1119L42 28.5876M42 28.5876C42 28.5876 42 28.5876 42 28.5877C42 28.5877 41.9999 28.5877 41.9999 28.5878M42 28.5876L41.9999 28.5878M41.9999 28.5878C41.4994 29.0995 40.6788 29.1087 40.1671 28.6087L41.9999 28.5878Z" fill="#717171" stroke="#0C0A09" stroke-width="1.5"/>
<mask id="path-2-inside-1_1_816" fill="white">
<path d="M121.827 47.3486C120.717 45.6957 119.668 44.1343 119.274 42.6608C118.854 41.0882 118.979 39.1509 119.113 37.0999C119.311 34.0404 119.516 30.8764 117.953 28.1754C116.366 25.4323 113.499 24.0244 110.727 22.6627C108.904 21.7674 107.182 20.9217 106.062 19.8025C104.943 18.683 104.098 16.9612 103.202 15.1379C101.841 12.3655 100.433 9.49855 97.6893 7.91152C94.9882 6.34883 91.8246 6.55418 88.7648 6.75242C86.7137 6.88559 84.7767 7.01137 83.2036 6.59082C81.7301 6.1968 80.1687 5.14844 78.5158 4.03828C76.047 2.37988 73.2478 0.5 70.001 0.5C66.7542 0.5 63.955 2.37988 61.4853 4.03855C59.8324 5.14871 58.2713 6.19707 56.7978 6.59082C55.2252 7.01137 53.2879 6.88559 51.2369 6.75242C48.1771 6.55418 45.0137 6.34883 42.3124 7.91152C39.5693 9.49855 38.1614 12.3655 36.7996 15.1379C35.9044 16.9612 35.0587 18.6833 33.9392 19.8025C32.82 20.9217 31.0982 21.7674 29.2749 22.6627C26.5023 24.0241 23.6355 25.4323 22.0482 28.1754C20.4853 30.8764 20.6906 34.0404 20.8891 37.1002C21.0223 39.1509 21.1478 41.0882 20.7275 42.6608C20.3335 44.1343 19.2852 45.6957 18.175 47.3486C16.5166 49.8183 14.6367 52.6172 14.6367 55.864C14.6367 59.1108 16.5163 61.91 18.175 64.3797C19.2849 66.0326 20.3335 67.5939 20.7273 69.0675C21.1475 70.64 21.022 72.5773 20.8889 74.6284C20.6904 77.6879 20.485 80.8515 22.048 83.5528C23.635 86.2959 26.502 87.7041 29.2746 89.0656C31.0977 89.9608 32.8198 90.8066 33.9389 91.9257C34.9766 92.9634 35.7794 94.5209 36.6044 96.1949L21.7428 123.536C21.1052 124.709 21.1235 126.099 21.792 127.255C22.4606 128.411 23.6563 129.12 24.991 129.152L36.3881 129.428L42.818 138.842C43.5336 139.89 44.6941 140.5 45.9519 140.5C46.0175 140.5 46.0837 140.498 46.1498 140.495C47.4831 140.428 48.6597 139.687 49.2974 138.514L64.9025 109.805C66.4731 110.627 68.1651 111.228 70.0007 111.228C71.836 111.228 73.5283 110.627 75.0989 109.805L90.704 138.514C91.3417 139.687 92.5183 140.428 93.8516 140.495C93.918 140.499 93.9839 140.5 94.0495 140.5C95.3073 140.5 96.4678 139.89 97.1834 138.842L103.613 129.428L115.01 129.152C116.345 129.12 117.541 128.411 118.209 127.255C118.878 126.099 118.896 124.709 118.258 123.536L112.824 113.538C112.284 112.545 111.042 112.177 110.049 112.717C109.056 113.257 108.689 114.499 109.228 115.492L114.436 125.073L103.365 125.341C102.145 125.37 101.006 125.989 100.318 126.997L94.0719 136.142L78.5823 107.645C80.2106 106.552 81.75 105.526 83.2036 105.137C84.7762 104.717 86.7135 104.842 88.7645 104.976C91.8246 105.174 94.988 105.379 97.689 103.816C99.1188 102.989 100.184 101.813 101.071 100.485L104.726 107.21C105.266 108.203 106.508 108.57 107.501 108.031C108.494 107.491 108.861 106.249 108.322 105.256L103.396 96.1946C104.221 94.5207 105.024 92.9634 106.062 91.9257C107.181 90.8066 108.903 89.9608 110.726 89.0656C113.499 87.7041 116.366 86.2959 117.953 83.5528C119.516 80.8518 119.31 77.6879 119.112 74.6281C118.979 72.5773 118.853 70.64 119.274 69.0672C119.668 67.5936 120.716 66.0326 121.826 64.3797C123.484 61.91 125.364 59.1108 125.364 55.864C125.365 52.6172 123.485 49.818 121.827 47.3486ZM45.9294 136.142L39.6839 126.997C38.9956 125.99 37.8565 125.37 36.6364 125.341L25.5657 125.073L38.9305 100.485C39.8173 101.813 40.8826 102.99 42.3124 103.817C45.0137 105.379 48.1779 105.174 51.2369 104.976C53.2879 104.843 55.2252 104.717 56.7978 105.137C58.2516 105.526 59.7911 106.552 61.4191 107.645L45.9294 136.142ZM118.429 62.0981C117.181 63.9566 115.891 65.8784 115.321 68.0106C114.727 70.2331 114.88 72.6022 115.029 74.8931C115.195 77.4563 115.352 79.8773 114.411 81.5034C113.447 83.1705 111.249 84.2498 108.923 85.3925C106.88 86.3955 104.768 87.4326 103.169 89.0322C101.569 90.6316 100.532 92.7439 99.5289 94.7864C98.3865 97.1129 97.3073 99.3099 95.6404 100.275C94.014 101.216 91.5935 101.058 89.03 100.892C86.7389 100.744 84.3701 100.59 82.1476 101.184C80.0156 101.754 78.0939 103.045 76.2353 104.293C74.058 105.755 72.0014 107.136 70.001 107.136C68.0008 107.136 65.9443 105.755 63.7669 104.293C61.9083 103.045 59.9869 101.754 57.8543 101.184C56.6343 100.858 55.3704 100.757 54.0992 100.757C53.0547 100.757 52.0052 100.825 50.9719 100.893C48.4084 101.059 45.9877 101.216 44.3616 100.275C42.6944 99.3102 41.6152 97.1129 40.4727 94.7864C39.4698 92.7439 38.4323 90.6318 36.8327 89.0322C35.2334 87.4329 33.1214 86.3955 31.0788 85.3925C28.7524 84.2501 26.555 83.1708 25.5904 81.5034C24.6495 79.8773 24.8064 77.4562 24.9727 74.8933C25.1214 72.6025 25.2751 70.2334 24.6809 68.0109C24.1111 65.8786 22.8204 63.9566 21.5722 62.0984C20.1101 59.921 18.729 57.8645 18.729 55.8643C18.729 53.8641 20.1101 51.8075 21.5722 49.6302C22.8204 47.7716 24.1108 45.8499 24.6809 43.7176C25.2751 41.4951 25.1214 39.1261 24.9727 36.8352C24.8064 34.272 24.6495 31.851 25.5904 30.2248C26.555 28.5577 28.7524 27.4784 31.0788 26.3357C33.1214 25.3328 35.2334 24.2954 36.8327 22.696C38.4321 21.0967 39.4695 18.9844 40.4727 16.9418C41.6152 14.6157 42.6944 12.4183 44.3616 11.4536C45.9877 10.513 48.4084 10.67 50.9719 10.8359C53.2628 10.9847 55.6316 11.1384 57.8543 10.5442C59.9863 9.97406 61.908 8.68371 63.7666 7.43547C65.944 5.97312 68.0005 4.59199 70.001 4.59199C72.0012 4.59199 74.0577 5.97312 76.2351 7.4352C78.0936 8.68344 80.0153 9.97406 82.1476 10.5439C84.3701 11.1381 86.7394 10.9844 89.0303 10.8357C91.5935 10.6697 94.0145 10.5125 95.6404 11.4534C97.3075 12.418 98.3868 14.6154 99.5292 16.9415C100.532 18.9841 101.57 21.0961 103.169 22.6957C104.769 24.2951 106.881 25.3325 108.923 26.3355C111.25 27.4779 113.447 28.5571 114.411 30.2243C115.352 31.8504 115.195 34.2714 115.029 36.8344C114.88 39.1252 114.727 41.4943 115.321 43.7168C115.891 45.8491 117.181 47.7711 118.429 49.6293C119.892 51.8067 121.273 53.8632 121.273 55.8634C121.273 57.8642 119.892 59.9207 118.429 62.0981Z"/>
</mask>
<path d="M121.827 47.3486C120.717 45.6957 119.668 44.1343 119.274 42.6608C118.854 41.0882 118.979 39.1509 119.113 37.0999C119.311 34.0404 119.516 30.8764 117.953 28.1754C116.366 25.4323 113.499 24.0244 110.727 22.6627C108.904 21.7674 107.182 20.9217 106.062 19.8025C104.943 18.683 104.098 16.9612 103.202 15.1379C101.841 12.3655 100.433 9.49855 97.6893 7.91152C94.9882 6.34883 91.8246 6.55418 88.7648 6.75242C86.7137 6.88559 84.7767 7.01137 83.2036 6.59082C81.7301 6.1968 80.1687 5.14844 78.5158 4.03828C76.047 2.37988 73.2478 0.5 70.001 0.5C66.7542 0.5 63.955 2.37988 61.4853 4.03855C59.8324 5.14871 58.2713 6.19707 56.7978 6.59082C55.2252 7.01137 53.2879 6.88559 51.2369 6.75242C48.1771 6.55418 45.0137 6.34883 42.3124 7.91152C39.5693 9.49855 38.1614 12.3655 36.7996 15.1379C35.9044 16.9612 35.0587 18.6833 33.9392 19.8025C32.82 20.9217 31.0982 21.7674 29.2749 22.6627C26.5023 24.0241 23.6355 25.4323 22.0482 28.1754C20.4853 30.8764 20.6906 34.0404 20.8891 37.1002C21.0223 39.1509 21.1478 41.0882 20.7275 42.6608C20.3335 44.1343 19.2852 45.6957 18.175 47.3486C16.5166 49.8183 14.6367 52.6172 14.6367 55.864C14.6367 59.1108 16.5163 61.91 18.175 64.3797C19.2849 66.0326 20.3335 67.5939 20.7273 69.0675C21.1475 70.64 21.022 72.5773 20.8889 74.6284C20.6904 77.6879 20.485 80.8515 22.048 83.5528C23.635 86.2959 26.502 87.7041 29.2746 89.0656C31.0977 89.9608 32.8198 90.8066 33.9389 91.9257C34.9766 92.9634 35.7794 94.5209 36.6044 96.1949L21.7428 123.536C21.1052 124.709 21.1235 126.099 21.792 127.255C22.4606 128.411 23.6563 129.12 24.991 129.152L36.3881 129.428L42.818 138.842C43.5336 139.89 44.6941 140.5 45.9519 140.5C46.0175 140.5 46.0837 140.498 46.1498 140.495C47.4831 140.428 48.6597 139.687 49.2974 138.514L64.9025 109.805C66.4731 110.627 68.1651 111.228 70.0007 111.228C71.836 111.228 73.5283 110.627 75.0989 109.805L90.704 138.514C91.3417 139.687 92.5183 140.428 93.8516 140.495C93.918 140.499 93.9839 140.5 94.0495 140.5C95.3073 140.5 96.4678 139.89 97.1834 138.842L103.613 129.428L115.01 129.152C116.345 129.12 117.541 128.411 118.209 127.255C118.878 126.099 118.896 124.709 118.258 123.536L112.824 113.538C112.284 112.545 111.042 112.177 110.049 112.717C109.056 113.257 108.689 114.499 109.228 115.492L114.436 125.073L103.365 125.341C102.145 125.37 101.006 125.989 100.318 126.997L94.0719 136.142L78.5823 107.645C80.2106 106.552 81.75 105.526 83.2036 105.137C84.7762 104.717 86.7135 104.842 88.7645 104.976C91.8246 105.174 94.988 105.379 97.689 103.816C99.1188 102.989 100.184 101.813 101.071 100.485L104.726 107.21C105.266 108.203 106.508 108.57 107.501 108.031C108.494 107.491 108.861 106.249 108.322 105.256L103.396 96.1946C104.221 94.5207 105.024 92.9634 106.062 91.9257C107.181 90.8066 108.903 89.9608 110.726 89.0656C113.499 87.7041 116.366 86.2959 117.953 83.5528C119.516 80.8518 119.31 77.6879 119.112 74.6281C118.979 72.5773 118.853 70.64 119.274 69.0672C119.668 67.5936 120.716 66.0326 121.826 64.3797C123.484 61.91 125.364 59.1108 125.364 55.864C125.365 52.6172 123.485 49.818 121.827 47.3486ZM45.9294 136.142L39.6839 126.997C38.9956 125.99 37.8565 125.37 36.6364 125.341L25.5657 125.073L38.9305 100.485C39.8173 101.813 40.8826 102.99 42.3124 103.817C45.0137 105.379 48.1779 105.174 51.2369 104.976C53.2879 104.843 55.2252 104.717 56.7978 105.137C58.2516 105.526 59.7911 106.552 61.4191 107.645L45.9294 136.142ZM118.429 62.0981C117.181 63.9566 115.891 65.8784 115.321 68.0106C114.727 70.2331 114.88 72.6022 115.029 74.8931C115.195 77.4563 115.352 79.8773 114.411 81.5034C113.447 83.1705 111.249 84.2498 108.923 85.3925C106.88 86.3955 104.768 87.4326 103.169 89.0322C101.569 90.6316 100.532 92.7439 99.5289 94.7864C98.3865 97.1129 97.3073 99.3099 95.6404 100.275C94.014 101.216 91.5935 101.058 89.03 100.892C86.7389 100.744 84.3701 100.59 82.1476 101.184C80.0156 101.754 78.0939 103.045 76.2353 104.293C74.058 105.755 72.0014 107.136 70.001 107.136C68.0008 107.136 65.9443 105.755 63.7669 104.293C61.9083 103.045 59.9869 101.754 57.8543 101.184C56.6343 100.858 55.3704 100.757 54.0992 100.757C53.0547 100.757 52.0052 100.825 50.9719 100.893C48.4084 101.059 45.9877 101.216 44.3616 100.275C42.6944 99.3102 41.6152 97.1129 40.4727 94.7864C39.4698 92.7439 38.4323 90.6318 36.8327 89.0322C35.2334 87.4329 33.1214 86.3955 31.0788 85.3925C28.7524 84.2501 26.555 83.1708 25.5904 81.5034C24.6495 79.8773 24.8064 77.4562 24.9727 74.8933C25.1214 72.6025 25.2751 70.2334 24.6809 68.0109C24.1111 65.8786 22.8204 63.9566 21.5722 62.0984C20.1101 59.921 18.729 57.8645 18.729 55.8643C18.729 53.8641 20.1101 51.8075 21.5722 49.6302C22.8204 47.7716 24.1108 45.8499 24.6809 43.7176C25.2751 41.4951 25.1214 39.1261 24.9727 36.8352C24.8064 34.272 24.6495 31.851 25.5904 30.2248C26.555 28.5577 28.7524 27.4784 31.0788 26.3357C33.1214 25.3328 35.2334 24.2954 36.8327 22.696C38.4321 21.0967 39.4695 18.9844 40.4727 16.9418C41.6152 14.6157 42.6944 12.4183 44.3616 11.4536C45.9877 10.513 48.4084 10.67 50.9719 10.8359C53.2628 10.9847 55.6316 11.1384 57.8543 10.5442C59.9863 9.97406 61.908 8.68371 63.7666 7.43547C65.944 5.97312 68.0005 4.59199 70.001 4.59199C72.0012 4.59199 74.0577 5.97312 76.2351 7.4352C78.0936 8.68344 80.0153 9.97406 82.1476 10.5439C84.3701 11.1381 86.7394 10.9844 89.0303 10.8357C91.5935 10.6697 94.0145 10.5125 95.6404 11.4534C97.3075 12.418 98.3868 14.6154 99.5292 16.9415C100.532 18.9841 101.57 21.0961 103.169 22.6957C104.769 24.2951 106.881 25.3325 108.923 26.3355C111.25 27.4779 113.447 28.5571 114.411 30.2243C115.352 31.8504 115.195 34.2714 115.029 36.8344C114.88 39.1252 114.727 41.4943 115.321 43.7168C115.891 45.8491 117.181 47.7711 118.429 49.6293C119.892 51.8067 121.273 53.8632 121.273 55.8634C121.273 57.8642 119.892 59.9207 118.429 62.0981Z" fill="#717171" stroke="#0C0A09" stroke-width="3" mask="url(#path-2-inside-1_1_816)"/>
<path d="M95.3087 45.3585L95.2009 46.1007L81.3247 44.0844C80.7727 44.0044 80.296 43.6577 80.0495 43.1579L73.844 30.5841L74.5165 30.2521L73.844 30.5841C73.1158 29.1087 71.6463 28.1953 70.0013 28.1953C68.3562 28.1953 66.8867 29.1087 66.1585 30.5841L65.486 30.2521L66.1585 30.5841L59.953 43.1579C59.9529 43.158 59.9529 43.158 59.9529 43.1581C59.7064 43.6577 59.2298 44.0043 58.678 44.0844C58.678 44.0844 58.6779 44.0844 58.6778 44.0844L44.8019 46.1007L44.8019 46.1007C43.1739 46.3372 41.8508 47.4524 41.3424 49.0172L41.3424 49.0173C40.834 50.5819 41.2485 52.2616 42.4268 53.4101L42.4269 53.4101L52.4676 63.1974C52.4677 63.1974 52.4677 63.1975 52.4678 63.1975C52.8673 63.5869 53.0489 64.1472 52.9547 64.6962L50.5843 78.5165L49.8451 78.3897L50.5843 78.5166C50.3061 80.1382 50.9581 81.7408 52.2891 82.7078C53.0431 83.2556 53.9211 83.5315 54.803 83.5315C55.4819 83.5315 56.1665 83.3679 56.802 83.0339C56.8021 83.0339 56.8021 83.0338 56.8021 83.0338L69.2131 76.5088L69.2136 76.5086C69.7066 76.2498 70.2956 76.2495 70.7889 76.5088L95.3087 45.3585ZM95.3087 45.3585L95.2009 46.1007C96.8288 46.3372 98.1516 47.4526 98.6601 49.0173C99.1685 50.5819 98.754 52.2616 97.5759 53.4101C97.5759 53.4101 97.5759 53.4101 97.5759 53.4101L87.5342 63.1978L87.534 63.198C87.1354 63.5867 86.9533 64.1469 87.0475 64.6962L89.4179 78.5165L89.418 78.5166C89.6962 80.138 89.0443 81.7409 87.7132 82.7078C86.3819 83.6746 84.6562 83.7992 83.2002 83.0339C83.2002 83.0339 83.2002 83.0339 83.2001 83.0339L70.7889 76.5089L95.3087 45.3585ZM84.493 65.1343L84.493 65.1344L86.8634 78.9548L86.8634 78.9548C87.0247 79.8951 86.4233 80.4408 86.1903 80.6103L86.1897 80.6107C85.9557 80.7807 85.2513 81.1829 84.4071 80.7394L84.4069 80.7393L71.9953 74.2143C70.7467 73.5579 69.2561 73.558 68.0072 74.2143C68.0071 74.2143 68.0071 74.2143 68.0071 74.2143L55.596 80.7395C54.7519 81.1835 54.0466 80.7803 53.8131 80.6107L53.8125 80.6103C53.5795 80.4408 52.9781 79.8951 53.1393 78.9548L53.1393 78.9547L55.5098 65.1347L55.5098 65.1346C55.7483 63.7445 55.2879 62.3267 54.2774 61.3415C54.2773 61.3415 54.2773 61.3415 54.2773 61.3414L44.2365 51.5541C43.5532 50.8881 43.7187 50.0931 43.808 49.8185C43.8974 49.5433 44.231 48.8034 45.1748 48.6664L59.051 46.6501C60.4472 46.4472 61.6532 45.5711 62.2776 44.306L84.493 65.1343ZM84.493 65.1343C84.2545 63.7444 84.7149 62.3267 85.7254 61.3418L85.2019 60.8047L85.7254 61.3418L95.7669 51.5541C96.45 50.8882 96.2842 50.0931 96.1952 49.8188L96.1948 49.8178C96.1056 49.5444 95.7728 48.8035 94.8283 48.6664L80.952 46.6501L80.9519 46.6501C79.5559 46.4474 78.3499 45.5711 77.7255 44.306L71.5198 31.732L71.5197 31.7318C71.0973 30.8766 70.2905 30.7884 70.0015 30.7884C69.7129 30.7884 68.9054 30.8764 68.4832 31.732C68.4832 31.732 68.4832 31.7321 68.4832 31.7321L62.2776 44.306L84.493 65.1343ZM54.2537 80.0038C54.1112 79.9002 53.7891 79.603 53.8786 79.0815L54.2537 80.0038Z" fill="#DC2626" stroke="#0C0A09" stroke-width="1.5"/>
</g>
<defs>
<clipPath id="clip0_1_816">
<rect width="140" height="140" fill="white" transform="translate(0 0.5)"/>
</clipPath>
</defs>
</svg>
