<svg width="140" height="141" viewBox="0 0 140 141" fill="none" xmlns="http://www.w3.org/2000/svg">
<g clip-path="url(#clip0_1_807)">
<mask id="path-1-inside-1_1_807" fill="white">
<path d="M132.094 19.3202L126.111 14.0522L132.094 8.78535C133.024 7.96504 133.342 6.68651 132.905 5.52654C132.466 4.3655 131.382 3.61569 130.142 3.61569H105.385V2.55185C105.385 1.41858 104.467 0.5 103.334 0.5C102.2 0.5 101.282 1.41858 101.282 2.55185V30.2245L84.4301 39.375C84.3372 38.6338 84.115 37.9053 83.7636 37.2196L81.3892 32.584C79.7592 29.401 75.8435 28.1396 72.6627 29.7684L70.8266 30.7084C69.2842 31.4988 68.1424 32.8403 67.6105 34.4895C67.0786 36.1376 67.2206 37.8946 68.0111 39.4359L70.3855 44.0726C70.9398 45.1546 71.7591 46.0112 72.7225 46.6115C71.4621 48.3087 70.864 50.3958 70.2487 52.5641L69.8066 54.13C69.4979 55.2205 70.1323 56.3548 71.2229 56.6625C71.4087 56.7159 71.5967 56.7404 71.7815 56.7404C72.6766 56.7404 73.499 56.1508 73.7554 55.2461L74.1976 53.6835C75.0969 50.5123 75.6491 48.814 77.4072 47.8591L80.5592 46.1469L80.948 45.9482C81.0773 45.882 81.198 45.8072 81.3208 45.7335L103.785 33.5346C103.643 36.3427 102.132 38.9959 99.6432 40.5072L85.0346 49.3833C85.0175 49.3929 85.0005 49.4025 84.9844 49.4132L80.4375 52.1753C79.4698 52.7638 79.1611 54.0264 79.7496 54.9951C80.304 55.9084 81.4575 56.2331 82.3985 55.7749L78.9485 66.2039L76.4267 67.2378L69.5694 70.048L71.5454 63.0626C71.8531 61.9721 71.2197 60.8377 70.1291 60.529C69.0375 60.2193 67.9042 60.8548 67.5956 61.9453L64.4735 72.9864C64.4329 73.1285 64.4062 73.2844 64.3998 73.4329L63.5827 88.442C63.5581 89.0145 63.6799 90.0965 63.415 90.6552L54.3403 109.747H47.7457C43.8824 109.747 40.74 112.889 40.74 116.751V122.674C39.8556 122.269 38.874 122.043 37.839 122.043H21.092C17.2297 122.043 14.0874 125.184 14.0874 129.047V136.396H9.16122C8.02795 136.396 7.10938 137.315 7.10938 138.448C7.10938 139.581 8.02795 140.5 9.16122 140.5H130.14C131.273 140.5 132.192 139.581 132.192 138.448C132.192 137.315 131.273 136.396 130.14 136.396H124.804V83.5084C124.804 79.6461 121.661 76.5037 117.799 76.5037H105.385V40.708C107.66 37.6244 108.503 33.5827 107.447 29.7417C107.281 29.1383 106.849 28.6426 106.272 28.398C105.989 28.2774 105.686 28.2239 105.385 28.2357V24.4898H130.141C131.382 24.4898 132.466 23.74 132.904 22.58C133.342 21.4201 133.024 20.1405 132.094 19.3202ZM71.5166 35.7499C71.7121 35.1443 72.1308 34.6508 72.6969 34.3613L74.533 33.4214C74.879 33.2441 75.2486 33.1597 75.6139 33.1597C76.4791 33.1597 77.3154 33.6329 77.7362 34.4543L80.1117 39.0909C80.6661 40.174 80.3072 41.4867 79.3213 42.15L78.6527 42.5121L77.2417 43.2352C76.0742 43.8334 74.6366 43.3698 74.0384 42.2013L71.6629 37.5657C71.3735 36.9996 71.3211 36.3544 71.5166 35.7499ZM67.3937 110.378C66.6962 110.06 65.9378 109.851 65.141 109.778L67.3937 106.786V110.378ZM77.1359 93.8445C78.1229 92.6621 78.3952 91.2811 78.6153 90.1681C78.6708 89.9032 79.6834 84.3725 79.6834 84.3725C79.6834 84.3725 80.6415 84.9696 80.7419 85.0123C80.8113 85.0433 80.8605 85.1117 80.8679 85.1918L81.9841 96.5383H75.1076L77.1359 93.8445ZM89.2697 82.5193L87.5372 96.5287H86.107L84.9524 84.7902C84.805 83.2862 83.8843 81.9735 82.5353 81.3209L80.4717 80.0125L81.8463 72.3936C81.8463 72.3936 87.6376 79.2733 87.7722 79.4485C88.9706 81.0069 89.3808 81.6307 89.2697 82.5193ZM67.1064 92.4496C67.5208 91.202 67.713 89.9321 67.681 88.6407L68.4265 74.9518L77.9167 71.0628L76.1917 80.6181C76.1864 80.6437 76.181 80.6704 76.1778 80.6961L74.7508 88.5969C74.565 89.4151 74.4026 90.6562 73.8921 91.3302L60.0269 109.747H58.884L67.1064 92.4496ZM18.191 129.046C18.191 127.447 19.492 126.146 21.092 126.146H37.839C39.439 126.146 40.7411 127.447 40.7411 129.046V136.396H18.191V129.046ZM44.8437 129.046V116.751C44.8437 115.151 46.1457 113.85 47.7457 113.85H64.4927C66.0927 113.85 67.3937 115.151 67.3937 116.751V136.396H44.8447V129.046H44.8437ZM120.7 83.5084V136.396H98.1511V124.094C98.1511 122.96 97.2325 122.042 96.0992 122.042C94.9649 122.042 94.0463 122.96 94.0463 124.094V136.396H71.4974V103.542C71.4974 101.943 72.7983 100.642 74.3984 100.642H91.1453C92.7453 100.642 94.0463 101.943 94.0463 103.542V113.828C94.0463 114.961 94.9649 115.88 96.0982 115.88C97.2325 115.88 98.15 114.961 98.15 113.828V83.5084C98.15 81.9084 99.452 80.6074 101.052 80.6074H103.312C103.319 80.6074 103.326 80.6085 103.334 80.6085C103.34 80.6085 103.347 80.6074 103.354 80.6074H117.798C119.398 80.6074 120.7 81.9095 120.7 83.5084ZM101.052 76.5037C97.1898 76.5037 94.0474 79.6461 94.0474 83.5084V97.1696C93.3125 96.8342 92.5114 96.6216 91.6687 96.5597L93.3424 83.0246C93.6714 80.3863 92.3256 78.6378 91.0246 76.9459C90.8868 76.7665 82.9112 67.2966 82.9112 67.2966L87.8043 52.5032L101.282 44.3151V76.5037H101.052ZM105.385 20.3851V7.72045H127.093L122.418 11.837C121.781 12.3977 121.416 13.2052 121.416 14.0533C121.416 14.9014 121.781 15.7089 122.418 16.2696L127.093 20.3861H105.385V20.3851Z"/>
</mask>
<path d="M132.094 19.3202L126.111 14.0522L132.094 8.78535C133.024 7.96504 133.342 6.68651 132.905 5.52654C132.466 4.3655 131.382 3.61569 130.142 3.61569H105.385V2.55185C105.385 1.41858 104.467 0.5 103.334 0.5C102.2 0.5 101.282 1.41858 101.282 2.55185V30.2245L84.4301 39.375C84.3372 38.6338 84.115 37.9053 83.7636 37.2196L81.3892 32.584C79.7592 29.401 75.8435 28.1396 72.6627 29.7684L70.8266 30.7084C69.2842 31.4988 68.1424 32.8403 67.6105 34.4895C67.0786 36.1376 67.2206 37.8946 68.0111 39.4359L70.3855 44.0726C70.9398 45.1546 71.7591 46.0112 72.7225 46.6115C71.4621 48.3087 70.864 50.3958 70.2487 52.5641L69.8066 54.13C69.4979 55.2205 70.1323 56.3548 71.2229 56.6625C71.4087 56.7159 71.5967 56.7404 71.7815 56.7404C72.6766 56.7404 73.499 56.1508 73.7554 55.2461L74.1976 53.6835C75.0969 50.5123 75.6491 48.814 77.4072 47.8591L80.5592 46.1469L80.948 45.9482C81.0773 45.882 81.198 45.8072 81.3208 45.7335L103.785 33.5346C103.643 36.3427 102.132 38.9959 99.6432 40.5072L85.0346 49.3833C85.0175 49.3929 85.0005 49.4025 84.9844 49.4132L80.4375 52.1753C79.4698 52.7638 79.1611 54.0264 79.7496 54.9951C80.304 55.9084 81.4575 56.2331 82.3985 55.7749L78.9485 66.2039L76.4267 67.2378L69.5694 70.048L71.5454 63.0626C71.8531 61.9721 71.2197 60.8377 70.1291 60.529C69.0375 60.2193 67.9042 60.8548 67.5956 61.9453L64.4735 72.9864C64.4329 73.1285 64.4062 73.2844 64.3998 73.4329L63.5827 88.442C63.5581 89.0145 63.6799 90.0965 63.415 90.6552L54.3403 109.747H47.7457C43.8824 109.747 40.74 112.889 40.74 116.751V122.674C39.8556 122.269 38.874 122.043 37.839 122.043H21.092C17.2297 122.043 14.0874 125.184 14.0874 129.047V136.396H9.16122C8.02795 136.396 7.10938 137.315 7.10938 138.448C7.10938 139.581 8.02795 140.5 9.16122 140.5H130.14C131.273 140.5 132.192 139.581 132.192 138.448C132.192 137.315 131.273 136.396 130.14 136.396H124.804V83.5084C124.804 79.6461 121.661 76.5037 117.799 76.5037H105.385V40.708C107.66 37.6244 108.503 33.5827 107.447 29.7417C107.281 29.1383 106.849 28.6426 106.272 28.398C105.989 28.2774 105.686 28.2239 105.385 28.2357V24.4898H130.141C131.382 24.4898 132.466 23.74 132.904 22.58C133.342 21.4201 133.024 20.1405 132.094 19.3202ZM71.5166 35.7499C71.7121 35.1443 72.1308 34.6508 72.6969 34.3613L74.533 33.4214C74.879 33.2441 75.2486 33.1597 75.6139 33.1597C76.4791 33.1597 77.3154 33.6329 77.7362 34.4543L80.1117 39.0909C80.6661 40.174 80.3072 41.4867 79.3213 42.15L78.6527 42.5121L77.2417 43.2352C76.0742 43.8334 74.6366 43.3698 74.0384 42.2013L71.6629 37.5657C71.3735 36.9996 71.3211 36.3544 71.5166 35.7499ZM67.3937 110.378C66.6962 110.06 65.9378 109.851 65.141 109.778L67.3937 106.786V110.378ZM77.1359 93.8445C78.1229 92.6621 78.3952 91.2811 78.6153 90.1681C78.6708 89.9032 79.6834 84.3725 79.6834 84.3725C79.6834 84.3725 80.6415 84.9696 80.7419 85.0123C80.8113 85.0433 80.8605 85.1117 80.8679 85.1918L81.9841 96.5383H75.1076L77.1359 93.8445ZM89.2697 82.5193L87.5372 96.5287H86.107L84.9524 84.7902C84.805 83.2862 83.8843 81.9735 82.5353 81.3209L80.4717 80.0125L81.8463 72.3936C81.8463 72.3936 87.6376 79.2733 87.7722 79.4485C88.9706 81.0069 89.3808 81.6307 89.2697 82.5193ZM67.1064 92.4496C67.5208 91.202 67.713 89.9321 67.681 88.6407L68.4265 74.9518L77.9167 71.0628L76.1917 80.6181C76.1864 80.6437 76.181 80.6704 76.1778 80.6961L74.7508 88.5969C74.565 89.4151 74.4026 90.6562 73.8921 91.3302L60.0269 109.747H58.884L67.1064 92.4496ZM18.191 129.046C18.191 127.447 19.492 126.146 21.092 126.146H37.839C39.439 126.146 40.7411 127.447 40.7411 129.046V136.396H18.191V129.046ZM44.8437 129.046V116.751C44.8437 115.151 46.1457 113.85 47.7457 113.85H64.4927C66.0927 113.85 67.3937 115.151 67.3937 116.751V136.396H44.8447V129.046H44.8437ZM120.7 83.5084V136.396H98.1511V124.094C98.1511 122.96 97.2325 122.042 96.0992 122.042C94.9649 122.042 94.0463 122.96 94.0463 124.094V136.396H71.4974V103.542C71.4974 101.943 72.7983 100.642 74.3984 100.642H91.1453C92.7453 100.642 94.0463 101.943 94.0463 103.542V113.828C94.0463 114.961 94.9649 115.88 96.0982 115.88C97.2325 115.88 98.15 114.961 98.15 113.828V83.5084C98.15 81.9084 99.452 80.6074 101.052 80.6074H103.312C103.319 80.6074 103.326 80.6085 103.334 80.6085C103.34 80.6085 103.347 80.6074 103.354 80.6074H117.798C119.398 80.6074 120.7 81.9095 120.7 83.5084ZM101.052 76.5037C97.1898 76.5037 94.0474 79.6461 94.0474 83.5084V97.1696C93.3125 96.8342 92.5114 96.6216 91.6687 96.5597L93.3424 83.0246C93.6714 80.3863 92.3256 78.6378 91.0246 76.9459C90.8868 76.7665 82.9112 67.2966 82.9112 67.2966L87.8043 52.5032L101.282 44.3151V76.5037H101.052ZM105.385 20.3851V7.72045H127.093L122.418 11.837C121.781 12.3977 121.416 13.2052 121.416 14.0533C121.416 14.9014 121.781 15.7089 122.418 16.2696L127.093 20.3861H105.385V20.3851Z" fill="#717171" stroke="#0C0A09" stroke-width="3" mask="url(#path-1-inside-1_1_807)"/>
<path d="M104.273 5.66797H131.089C131.55 5.66797 131.765 6.23759 131.42 6.54256L122.992 13.9944L131.592 21.6225C131.937 21.9283 131.719 22.498 131.259 22.4966L104.427 22.4136" stroke="#DC2626" stroke-width="2.5"/>
</g>
<defs>
<clipPath id="clip0_1_807">
<rect width="140" height="140" fill="white" transform="translate(0 0.5)"/>
</clipPath>
</defs>
</svg>
