<svg width="140" height="141" viewBox="0 0 140 141" fill="none" xmlns="http://www.w3.org/2000/svg">
<path d="M75.8125 118.625V119.375H76.5625H80.9375C81.3187 119.375 81.6844 119.526 81.954 119.796C82.2235 120.066 82.375 120.431 82.375 120.812V125.188C82.375 127.889 81.3017 130.481 79.3912 132.391C77.4806 134.302 74.8894 135.375 72.1875 135.375H15.3125C12.6106 135.375 10.0194 134.302 8.10885 132.391C6.19832 130.481 5.125 127.889 5.125 125.188V120.812C5.125 120.431 5.27645 120.066 5.54603 119.796C5.81562 119.526 6.18125 119.375 6.5625 119.375H10.9375H11.6875V118.625V72.6875C11.6875 72.3063 11.839 71.9406 12.1085 71.671C12.3781 71.4014 12.7437 71.25 13.125 71.25H33.5125C33.8938 71.25 34.2594 71.4015 34.529 71.671C34.7985 71.9406 34.95 72.3062 34.95 72.6875C34.95 73.0688 34.7985 73.4344 34.529 73.704C34.2594 73.9735 33.8938 74.125 33.5125 74.125H15.3125H14.5625V74.875V118.625V119.375H15.3125H72.1875H72.9375V118.625V97.1875C72.9375 96.8063 73.089 96.4406 73.3585 96.171C73.6281 95.9015 73.9938 95.75 74.375 95.75C74.7562 95.75 75.1219 95.9015 75.3915 96.171C75.661 96.4406 75.8125 96.8063 75.8125 97.1875V118.625ZM67.0625 131.75V132.5H67.8125H72.1875C74.1269 132.5 75.9869 131.73 77.3582 130.358C78.7296 128.987 79.5 127.127 79.5 125.188V123V122.25H78.75H8.75H8V123V125.188C8 127.127 8.77042 128.987 10.1418 130.358C11.5131 131.73 13.3731 132.5 15.3125 132.5H19.6875H20.4375V131.75V129.562C20.4375 129.181 20.589 128.816 20.8585 128.546C21.1281 128.276 21.4937 128.125 21.875 128.125C22.2563 128.125 22.6219 128.276 22.8915 128.546C23.161 128.816 23.3125 129.181 23.3125 129.562V131.75V132.5H24.0625H63.4375H64.1875V131.75V129.562C64.1875 129.181 64.339 128.816 64.6085 128.546C64.8781 128.276 65.2437 128.125 65.625 128.125C66.0063 128.125 66.3719 128.276 66.6415 128.546C66.911 128.816 67.0625 129.181 67.0625 129.562V131.75Z" fill="#717171" stroke="#0C0A09" stroke-width="1.5"/>
<path d="M112.312 23.1252H111.562H109.375C108.994 23.1252 108.628 23.2767 108.359 23.5463C108.089 23.8159 107.938 24.1815 107.938 24.5627C107.938 24.944 108.089 25.3096 108.359 25.5792M112.312 23.1252L108.359 25.5792M112.312 23.1252V22.3752V20.1877C112.312 18.6462 112.925 17.1677 114.015 16.0777C115.105 14.9876 116.583 14.3752 118.125 14.3752H122.5C122.881 14.3752 123.247 14.5267 123.516 14.7963C123.786 15.0659 123.938 15.4315 123.938 15.8127C123.938 16.194 123.786 16.5596 123.516 16.8292C123.247 17.0988 122.881 17.2502 122.5 17.2502H118.125C117.346 17.2502 116.599 17.5597 116.048 18.1106C115.497 18.6615 115.188 19.4087 115.188 20.1877V22.3752V23.1252H115.938H118.125C118.506 23.1252 118.872 23.2767 119.141 23.5463C119.411 23.8159 119.562 24.1815 119.562 24.5627C119.562 24.944 119.411 25.3096 119.141 25.5792C118.872 25.8488 118.506 26.0002 118.125 26.0002H115.938H115.188V26.7502V33.3127C115.188 33.694 115.036 34.0596 114.766 34.3292C114.497 34.5988 114.131 34.7502 113.75 34.7502C113.369 34.7502 113.003 34.5988 112.734 34.3292C112.464 34.0596 112.312 33.694 112.312 33.3127V26.7502V26.0002H111.562H109.375C108.994 26.0002 108.628 25.8488 108.359 25.5792M112.312 23.1252L107.828 26.1095L108.359 25.5792" fill="#717171" stroke="#0C0A09" stroke-width="1.5"/>
<path d="M129.062 5.62476H102.812C101.271 5.62476 99.7925 6.23714 98.7024 7.3272C97.6124 8.41725 97 9.89569 97 11.4373V15.8123C97 16.1935 97.1514 16.5591 97.421 16.8287M129.062 5.62476L97.421 16.8287M129.062 5.62476C130.604 5.62476 132.082 6.23714 133.173 7.3272C134.263 8.41725 134.875 9.89569 134.875 11.4373V37.6873C134.875 39.2288 134.263 40.7073 133.173 41.7973C132.082 42.8874 130.604 43.4998 129.062 43.4998H102.812C101.271 43.4998 99.7925 42.8874 98.7024 41.7973C97.6124 40.7073 97 39.2288 97 37.6873V24.5623C97 24.181 97.1515 23.8154 97.421 23.5458L96.8976 23.0224L97.421 23.5458C97.6906 23.2762 98.0563 23.1248 98.4375 23.1248C98.8187 23.1248 99.1844 23.2762 99.454 23.5458C99.7235 23.8154 99.875 24.181 99.875 24.5623V37.6873C99.875 38.4663 100.184 39.2135 100.735 39.7644C101.286 40.3153 102.033 40.6248 102.812 40.6248H129.062C129.842 40.6248 130.589 40.3153 131.14 39.7644C131.691 39.2135 132 38.4663 132 37.6873V11.4373C132 10.6582 131.691 9.91102 131.14 9.36013C130.589 8.80924 129.842 8.49976 129.062 8.49976H102.812C102.033 8.49976 101.286 8.80924 100.735 9.36013C100.184 9.91102 99.875 10.6582 99.875 11.4373V15.8123C99.875 16.1935 99.7236 16.5591 99.454 16.8287C99.1844 17.0983 98.8187 17.2498 98.4375 17.2498C98.0563 17.2498 97.6906 17.0983 97.421 16.8287M129.062 5.62476L96.8907 17.3591L97.421 16.8287" fill="#717171" stroke="#0C0A09" stroke-width="1.5"/>
<path d="M109.286 96.8196C108.407 95.504 107.938 93.9573 107.938 92.375C107.938 90.2533 108.78 88.2184 110.281 86.7181C111.781 85.2179 113.816 84.375 115.938 84.375C117.52 84.375 119.066 84.8442 120.382 85.7232C121.698 86.6023 122.723 87.8517 123.329 89.3135C123.934 90.7753 124.092 92.3839 123.784 93.9357C123.475 95.4876 122.713 96.913 121.594 98.0319C120.476 99.1507 119.05 99.9126 117.498 100.221C115.946 100.53 114.338 100.372 112.876 99.766C111.414 99.1605 110.165 98.1352 109.286 96.8196ZM120.199 95.2223C120.762 94.3795 121.063 93.3886 121.063 92.375C121.063 91.0158 120.523 89.7122 119.561 88.7511C118.6 87.7899 117.297 87.25 115.938 87.25C114.924 87.25 113.933 87.5506 113.09 88.1137C112.247 88.6769 111.591 89.4773 111.203 90.4138C110.815 91.3502 110.713 92.3807 110.911 93.3748C111.109 94.369 111.597 95.2822 112.314 95.9989C113.03 96.7157 113.944 97.2038 114.938 97.4015C115.932 97.5993 116.962 97.4978 117.899 97.1099C118.835 96.722 119.636 96.0651 120.199 95.2223Z" fill="#717171" stroke="#0C0A09" stroke-width="1.5"/>
<path d="M102.812 73.4375H129.062C130.604 73.4375 132.082 74.0499 133.173 75.1399C134.263 76.23 134.875 77.7084 134.875 79.25V92.375C134.875 92.7563 134.724 93.1219 134.454 93.3915C134.184 93.661 133.819 93.8125 133.438 93.8125C133.056 93.8125 132.691 93.661 132.421 93.3915C132.151 93.1219 132 92.7563 132 92.375V79.25C132 78.4709 131.691 77.7238 131.14 77.1729C130.589 76.622 129.842 76.3125 129.062 76.3125H102.812C102.033 76.3125 101.286 76.622 100.735 77.1729C100.184 77.7238 99.875 78.4709 99.875 79.25V105.5C99.875 106.279 100.184 107.026 100.735 107.577C101.286 108.128 102.033 108.438 102.812 108.438H129.062C129.842 108.438 130.589 108.128 131.14 107.577C131.691 107.026 132 106.279 132 105.5V101.125C132 100.744 132.151 100.378 132.421 100.109C132.691 99.839 133.056 99.6875 133.438 99.6875C133.819 99.6875 134.184 99.839 134.454 100.109C134.724 100.378 134.875 100.744 134.875 101.125V105.5C134.875 107.042 134.263 108.52 133.173 109.61C132.082 110.7 130.604 111.312 129.062 111.312H102.812C101.271 111.312 99.7925 110.7 98.7024 109.61C97.6124 108.52 97 107.042 97 105.5V79.25C97 77.7084 97.6124 76.23 98.7024 75.1399C99.7925 74.0499 101.271 73.4375 102.812 73.4375Z" fill="#717171" stroke="#0C0A09" stroke-width="1.5"/>
<path d="M53.25 28.9367V15.813C53.2509 15.5683 53.3143 15.3279 53.4341 15.1145C53.5541 14.9009 53.7267 14.7214 53.9355 14.5932C54.1444 14.465 54.3825 14.3924 54.6273 14.3821C54.8722 14.3719 55.1155 14.4244 55.3344 14.5346L55.3344 14.5346L55.3365 14.5357L68.4578 21.0964C68.692 21.217 68.8885 21.3997 69.026 21.6245C69.164 21.8502 69.237 22.1097 69.237 22.3742C69.237 22.6388 69.164 22.8982 69.026 23.124C68.8886 23.3488 68.692 23.5315 68.4579 23.6521L55.3365 30.2128L55.3365 30.2128L55.3299 30.2161C55.1299 30.3186 54.9087 30.3727 54.684 30.3742C54.4158 30.3749 54.1527 30.3005 53.9246 30.1595C53.7179 30.03 53.5475 29.8501 53.4295 29.6367C53.3113 29.4229 53.2495 29.1825 53.25 28.9382V28.9367ZM57.2104 18.6847L56.125 18.142V19.3555V25.393V26.6065L57.2104 26.0638L63.2479 23.0451L64.5896 22.3742L63.2479 21.7034L57.2104 18.6847Z" fill="#717171" stroke="#0C0A09" stroke-width="1.5"/>
<path d="M69.5836 38.121C66.4694 40.2018 62.808 41.3125 59.0625 41.3125C54.04 41.3125 49.2231 39.3173 45.6717 35.7658C42.1202 32.2144 40.125 27.3975 40.125 22.375C40.125 18.6295 41.2357 14.9682 43.3165 11.8539C45.3974 8.73964 48.3551 6.31237 51.8154 4.87904C55.2758 3.44571 59.0835 3.07068 62.757 3.80139C66.4305 4.5321 69.8049 6.33572 72.4533 8.98417C75.1018 11.6326 76.9054 15.007 77.6361 18.6805C78.3668 22.354 77.9918 26.1617 76.5585 29.6221C75.1251 33.0825 72.6979 36.0401 69.5836 38.121ZM67.9863 9.01953C65.3449 7.25456 62.2394 6.31251 59.0625 6.31251C54.8025 6.31251 50.7169 8.0048 47.7046 11.0171C44.6923 14.0294 43 18.115 43 22.375C43 25.5519 43.942 28.6574 45.707 31.2989C47.472 33.9403 49.9806 35.9991 52.9156 37.2148C55.8507 38.4306 59.0803 38.7486 62.1961 38.1289C65.312 37.5091 68.174 35.9793 70.4204 33.7329C72.6668 31.4865 74.1966 28.6245 74.8164 25.5086C75.4361 22.3928 75.118 19.1632 73.9023 16.2282C72.6866 13.2931 70.6278 10.7845 67.9863 9.01953Z" fill="#717171" stroke="#0C0A09" stroke-width="1.5"/>
<path d="M81.4686 49.6871C81.3037 49.7696 81.1219 49.8125 80.9375 49.8125C80.6806 49.8125 80.4306 49.7292 80.225 49.575C79.9731 49.386 79.8065 49.1047 79.7619 48.793C79.7174 48.4812 79.7985 48.1645 79.9875 47.9125L86.55 39.1625C86.739 38.9106 87.0203 38.744 87.3321 38.6994C87.6438 38.6549 87.9605 38.736 88.2125 38.925C88.4645 39.114 88.631 39.3953 88.6756 39.7071C88.7201 40.0189 88.639 40.3356 88.45 40.5875L81.8875 49.3375C81.7769 49.485 81.6335 49.6047 81.4686 49.6871Z" fill="#717171" stroke="#0C0A09" stroke-width="2"/>
<path d="M86.5258 59.3234L86.9689 58.4371C86.804 58.3547 86.6606 58.235 86.55 58.0875C86.361 57.8356 86.2799 57.5189 86.3244 57.2071C86.369 56.8953 86.5356 56.614 86.7875 56.425L95.5375 49.8625C95.7895 49.6735 96.1062 49.5924 96.4179 49.6369C96.7297 49.6815 97.011 49.8481 97.2 50.1C97.389 50.352 97.4701 50.6687 97.4256 50.9804C97.381 51.2922 97.2145 51.5735 96.9625 51.7625L88.2125 58.325C88.0069 58.4792 87.7569 58.5625 87.5 58.5625C87.3157 58.5625 87.1338 58.5196 86.9689 58.4371L86.5258 59.3234Z" fill="#717171" stroke="#0C0A09" stroke-width="2"/>
<path d="M104.758 62.7313L104.768 62.7293L104.777 62.7272C104.934 62.6927 105.095 62.6901 105.252 62.7195C105.41 62.749 105.559 62.8099 105.692 62.8987C105.825 62.9874 105.939 63.1021 106.027 63.2358C106.114 63.3696 106.174 63.5197 106.202 63.6772L106.206 63.6969L106.21 63.7164C106.245 63.8726 106.247 64.0341 106.218 64.1913C106.188 64.3485 106.127 64.4982 106.039 64.6312C105.95 64.7643 105.835 64.8781 105.702 64.9658C105.568 65.0534 105.418 65.1132 105.26 65.1414L105.25 65.1432L105.241 65.1451L94.4002 67.3132H94.0617H94.0118L93.9622 67.3182C93.6459 67.3498 93.3301 67.2545 93.0841 67.0532C92.8381 66.852 92.6821 66.5612 92.6505 66.245C92.6189 65.9287 92.7142 65.6128 92.9154 65.3668C93.0151 65.245 93.1378 65.144 93.2764 65.0697C93.4151 64.9953 93.5671 64.9489 93.7237 64.9332L93.7724 64.9284L93.8203 64.9188L104.758 62.7313Z" fill="#717171" stroke="#0C0A09" stroke-width="2"/>
<path d="M8.75 28.1873H8V28.9373V59.5623V60.3123H8.75H30.625H31.375V59.5623V28.9373V28.1873H30.625H8.75ZM32.8125 63.1873H6.5625C6.18125 63.1873 5.81562 63.0358 5.54603 62.7662C5.27645 62.4966 5.125 62.131 5.125 61.7498V26.7498C5.125 26.3685 5.27645 26.0029 5.54603 25.7333C5.81562 25.4637 6.18125 25.3123 6.5625 25.3123H32.8125C33.1937 25.3123 33.5594 25.4637 33.829 25.7333C34.0985 26.0029 34.25 26.3685 34.25 26.7498V61.7498C34.25 62.131 34.0985 62.4966 33.829 62.7662C33.5594 63.0358 33.1938 63.1873 32.8125 63.1873Z" fill="#717171" stroke="#0C0A09" stroke-width="1.5"/>
<path d="M19.6875 34.0625H24.0625C24.4437 34.0625 24.8094 34.214 25.079 34.4835C25.3485 34.7531 25.5 35.1188 25.5 35.5C25.5 35.8812 25.3485 36.2469 25.079 36.5165C24.8094 36.7861 24.4437 36.9375 24.0625 36.9375H19.6875C19.3062 36.9375 18.9406 36.7861 18.671 36.5165C18.4015 36.2469 18.25 35.8812 18.25 35.5C18.25 35.1188 18.4015 34.7531 18.671 34.4835C18.9406 34.214 19.3063 34.0625 19.6875 34.0625Z" fill="#717171" stroke="#0C0A09" stroke-width="1.5"/>
<path d="M15.3125 42.8123H24.0625C24.4437 42.8123 24.8094 42.9637 25.079 43.2333C25.3485 43.5029 25.5 43.8685 25.5 44.2498C25.5 44.631 25.3485 44.9966 25.079 45.2662C24.8094 45.5358 24.4437 45.6873 24.0625 45.6873H15.3125C14.9312 45.6873 14.5656 45.5358 14.296 45.2662C14.0265 44.9966 13.875 44.631 13.875 44.2498C13.875 43.8685 14.0265 43.5029 14.296 43.2333C14.5656 42.9637 14.9312 42.8123 15.3125 42.8123Z" fill="#717171" stroke="#0C0A09" stroke-width="1.5"/>
<path d="M15.3125 51.5627H24.0625C24.4437 51.5627 24.8094 51.7142 25.079 51.9838C25.3485 52.2534 25.5 52.619 25.5 53.0002C25.5 53.3815 25.3485 53.7471 25.079 54.0167C24.8094 54.2863 24.4437 54.4377 24.0625 54.4377H15.3125C14.9312 54.4377 14.5656 54.2863 14.296 54.0167C14.0265 53.7471 13.875 53.3815 13.875 53.0002C13.875 52.619 14.0265 52.2534 14.296 51.9838C14.5656 51.7142 14.9312 51.5627 15.3125 51.5627Z" fill="#717171" stroke="#0C0A09" stroke-width="1.5"/>
<path d="M78.3626 63.6557L78.3622 63.6549C78.2676 63.4904 78.1416 63.3461 77.9913 63.2303C77.8409 63.1145 77.6693 63.0294 77.4861 62.9799C77.3029 62.9304 77.1117 62.9175 76.9235 62.9419C76.7353 62.9663 76.5538 63.0275 76.3893 63.1221C76.2247 63.2167 76.0805 63.3427 75.9646 63.493C75.8488 63.6433 75.7637 63.815 75.7143 63.9982C75.6648 64.1814 75.6519 64.3726 75.6763 64.5607C75.7007 64.7488 75.7618 64.9302 75.8563 65.0947C75.8563 65.0948 75.8564 65.0949 75.8565 65.095L85.5024 81.784L85.9455 82.5507L85.1164 82.8616L50.1164 95.9866L49.9891 96.0343H49.8531H49.853H49.853H49.853H49.8529H49.8529H49.8529H49.8528H49.8528H49.8528H49.8527H49.8527H49.8527H49.8526H49.8526H49.8526H49.8525H49.8525H49.8524H49.8524H49.8523H49.8523H49.8522H49.8522H49.8522H49.8521H49.8521H49.8521H49.8521H49.852H49.852H49.852H49.8519H49.8519H49.8519H49.8518H49.8518H49.8517H49.8517H49.8517H49.8516H49.8516H49.8515H49.8515H49.8515H49.8514H49.8514H49.8513H49.8513H49.8512H49.8512H49.8511H49.8511H49.851H49.851H49.8509H49.8509H49.8508H49.8508H49.8507H49.8507H49.8506H49.8506H49.8505H49.8504H49.8504H49.8503H49.8503H49.8502H49.8501H49.8501H49.85H49.8499H49.8499H49.8498H49.8497H49.8497H49.8496H49.8495H49.8494H49.8494H49.8493H49.8492H49.8491H49.8491H49.849H49.8489H49.8488H49.8487H49.8486H49.8486H49.8485H49.8484H49.8483H49.8482H49.8481H49.848H49.8479H49.8478H49.8477H49.8477H49.8476H49.8475H49.8474H49.8473H49.8472H49.8471H49.8469H49.8468H49.8467H49.8466H49.8465H49.8464H49.8463H49.8462H49.8461H49.846H49.8458H49.8457H49.8456H49.8455H49.8454H49.8452H49.8451H49.845H49.8449H49.8447H49.8446H49.8445H49.8443H49.8442H49.8441H49.8439H49.8438H49.8437H49.8435H49.8434H49.8432H49.8431H49.8429H49.8428H49.8426H49.8425H49.8423H49.8422H49.842H49.8419H49.8417H49.8416H49.8414H49.8412H49.8411H49.8409H49.8407H49.8406H49.8404H49.8402H49.8401H49.8399H49.8397H49.8395H49.8394H49.8392H49.839H49.8388H49.8386H49.8384H49.8383H49.8381H49.8379H49.8377H49.8375H49.8373H49.8371H49.8369H49.8367H49.8365H49.8363H49.8361H49.8359H49.8357H49.8354H49.8352H49.835H49.8348H49.8346H49.8344H49.8341H49.8339H49.8337H49.8335H49.8332H49.833H49.8328H49.8325H49.8323H49.8321H49.8318H49.8316H49.8313H49.8311H49.8309H49.8306H49.8304H49.8301H49.8298H49.8296H49.8293H49.8291H49.8288H49.8286H49.8283H49.828H49.8277H49.8275H49.8272H49.8269H49.8267H49.8264H49.8261H49.8258H49.8255H49.8252H49.8249H49.8247H49.8244H49.8241H49.8238H49.8235H49.8232H49.8229H49.8226H49.8223H49.8219H49.8216H49.8213H49.821H49.8207H49.8204H49.8201H49.8197H49.8194H49.8191H49.8187H49.8184H49.8181H49.8177H49.8174H49.8171H49.8167H49.8164H49.816H49.8157H49.8153H49.815H49.8146H49.8143H49.8139H49.8135H49.8132H49.8128H49.8124H49.8121H49.8117H49.8113H49.8109H49.8106H49.8102H49.8098H49.8094H49.809H49.8086H49.8082H49.8078H49.8074H49.807H49.8066H49.8062H49.8058H49.8054H49.805H49.8046H49.8041H49.8037H49.8033H49.8029H49.8025H49.802H49.8016H49.8012H49.8007H49.8003H49.7998H49.7994H49.7989H49.7985H49.798H49.7976H49.7971H49.7967H49.7962H49.7957H49.7953H49.7948H49.7943H49.7939H49.7934H49.7929H49.7924H49.7919H49.7914H49.791H49.7905H49.79H49.7895H49.789H49.7885H49.788H49.7874H49.7869H49.7864H49.7859H49.7854H49.7849H49.7843H49.7838H49.7833H49.7827H49.7822H49.7817H49.7811H49.7806H49.78H49.7795H49.7789H49.7784H49.7778H49.7773H49.7767H49.7761H49.7756H49.775H49.7744H49.7739H49.7733H49.7727H49.7721H49.7715H49.7709H49.7703H49.7697H49.7691H49.7685H49.7679H49.7673H49.7667H49.7661H49.7655H49.7649H49.7642H49.7636H49.763H49.7624H49.7617H49.7611H49.7604H49.7598H49.7592H49.7585H49.7579H49.7572H49.7565H49.7559H49.7552H49.7545H49.7539H49.7532H49.7525H49.7518H49.7512H49.7505H49.7498H49.7491H49.7484H49.7477H49.747H49.7463H49.7456H49.7449H49.7442H49.7435H49.7427H49.742H49.7413H49.7406H49.7398H49.7391H49.7384H49.7376H49.7369H49.7361H49.7354H49.7346H49.7339H49.7331H49.7323H49.7316H49.7308H49.73H49.7292H49.7285H49.7277H49.7269H49.7261H49.7258L44.2128 99.2149L44.2122 99.2152L40.4284 101.402C39.8448 101.74 39.2004 101.959 38.532 102.047C37.8636 102.135 37.1845 102.09 36.5334 101.915L36.5325 101.915C35.2246 101.561 34.1098 100.704 33.4318 99.5315L29.0569 91.9628L29.0485 91.9483L29.0407 91.9334C28.4378 90.7733 28.3009 89.4268 28.6582 88.1692C29.0155 86.9116 29.8398 85.8381 30.9626 85.1684L30.9714 85.1631L30.9715 85.1631L38.5402 80.7881L39.1899 80.4126L39.5651 81.0625L45.0338 90.5343L44.3843 90.9093L45.0338 90.5343C45.1605 90.7537 45.3428 90.9357 45.5625 91.0619L45.1888 91.7122L45.5625 91.0619C45.7821 91.1882 46.0312 91.2541 46.2845 91.2531L46.2904 91.2531C46.5432 91.2541 46.7918 91.1884 47.0112 91.0627C47.2305 90.9369 47.4128 90.7555 47.5396 90.5368C47.6665 90.3181 47.7334 90.0698 47.7336 89.817C47.7339 89.5642 47.6675 89.3158 47.541 89.0968L41.8976 79.3411L41.5795 78.7912L42.0696 78.387L69.5228 55.7463L70.2063 55.1826L70.6494 55.9499L71.5463 57.503L71.5471 57.5044C71.6416 57.6689 71.7677 57.8132 71.918 57.929C72.0683 58.0448 72.24 58.1299 72.4232 58.1794C72.6064 58.2289 72.7975 58.2418 72.9857 58.2174C73.1739 58.193 73.3554 58.1318 73.52 58.0372C73.6845 57.9426 73.8288 57.8166 73.9446 57.6663C74.0604 57.516 74.1455 57.3443 74.195 57.1611C74.2445 56.9779 74.2574 56.7868 74.233 56.5986L74.9768 56.5021L74.233 56.5985C74.2086 56.4104 74.1474 56.229 74.0529 56.0645C74.0529 56.0644 74.0528 56.0644 74.0528 56.0643L71.8682 52.2849C71.8679 52.2844 71.8676 52.2839 71.8673 52.2833C71.762 52.1039 71.6191 51.9494 71.4483 51.8306L71.8765 51.2149L71.4482 51.8306C71.277 51.7115 71.0818 51.631 70.8763 51.5949L70.8673 51.5933L70.8673 51.5932C70.6607 51.5543 70.448 51.5611 70.2444 51.6133C70.0407 51.6655 69.851 51.7617 69.6885 51.8951L39.0645 77.1381L39.0164 77.1777L38.9625 77.2088L29.6462 82.5887C29.6457 82.5889 29.6453 82.5892 29.6449 82.5894C28.1165 83.48 26.9264 84.852 26.2607 86.4909C25.5949 88.1303 25.4913 89.9442 25.9662 91.6487L26.1231 92.212L25.6151 92.5015L23.4297 93.7472C23.4293 93.7474 23.4289 93.7477 23.4285 93.7479C22.4308 94.3212 21.6256 95.1777 21.1151 96.209C20.6044 97.2407 20.4115 98.4008 20.5609 99.5422C20.7103 100.684 21.1953 101.755 21.9544 102.62C22.7132 103.486 23.7116 104.106 24.8232 104.403C25.3163 104.534 25.8243 104.599 26.3343 104.597C27.3559 104.593 28.3592 104.325 29.2473 103.82L78.3626 63.6557ZM78.3626 63.6557L89.253 82.5498C89.2535 82.5507 89.254 82.5516 89.2546 82.5526C89.3552 82.7318 89.4162 82.9305 89.4334 83.1353C89.4508 83.3412 89.4236 83.5484 89.3536 83.7429L89.3529 83.7448C89.2827 83.9416 89.1705 84.1206 89.024 84.2696C88.8776 84.4185 88.7005 84.5337 88.5051 84.6072C88.505 84.6072 88.5049 84.6072 88.5048 84.6073L55.6926 96.9228L54.8663 97.2329L55.3058 97.9984L59.287 104.933L59.288 104.934M78.3626 63.6557L59.288 104.934M37.9312 105.806C37.155 105.812 36.3818 105.709 35.6343 105.5C34.1785 105.096 32.857 104.31 31.8062 103.225L37.9312 105.806ZM37.9312 105.806C39.4688 105.81 40.9793 105.402 42.3062 104.625L37.9312 105.806ZM59.288 104.934C59.6701 105.596 59.9181 106.326 60.0177 107.083C60.1174 107.841 60.0668 108.61 59.8689 109.348C59.6709 110.086 59.3295 110.777 58.8642 111.383C58.3989 111.989 57.8188 112.497 57.157 112.878C55.8231 113.643 54.2404 113.849 52.7554 113.449C51.2704 113.05 50.0043 112.078 49.2341 110.747L59.288 104.934ZM23.7007 100.259L23.6975 100.253C23.5041 99.9189 23.3786 99.5496 23.3282 99.1665C23.2779 98.7837 23.3034 98.3947 23.4035 98.0219L23.7007 100.259ZM23.7007 100.259C24.0951 100.928 24.7383 101.413 25.4895 101.609L23.7007 100.259ZM27.3342 94.7644L27.7086 95.4121L29.8961 99.1965L30.2724 99.8475L29.6205 100.222L27.7191 101.315C27.7186 101.315 27.7181 101.315 27.7176 101.316L27.7174 101.316L27.3437 100.666C27.0946 100.81 26.8195 100.903 26.5342 100.941L27.3342 94.7644ZM27.3342 94.7644L26.6856 95.1372M27.3342 94.7644L26.6856 95.1372M26.6856 95.1372L24.7841 96.23C24.784 96.2301 24.7838 96.2302 24.7836 96.2303C24.4467 96.4229 24.1513 96.6803 23.9144 96.9877C23.6775 97.2951 23.5039 97.6465 23.4036 98.0214L26.6856 95.1372ZM31.4348 102.573L29.2479 103.82L49.2335 110.746L44.8591 103.157L44.4851 102.508L43.8356 102.881L41.9325 103.975L41.9272 103.978C40.7158 104.687 39.3367 105.059 37.9329 105.056L37.9254 105.056C37.2195 105.062 36.5162 104.968 35.8364 104.778L35.8349 104.777C34.5078 104.409 33.303 103.693 32.3451 102.703L31.9403 102.285L31.4348 102.573ZM56.7805 106.415L56.7794 106.413L52.4263 98.9321L52.2094 98.5593H51.7781H51.6031H51.4036L51.2305 98.6584L47.5993 100.737L46.9463 101.11L47.322 101.762L51.697 109.353L51.697 109.353L51.7004 109.358C52.0928 110.025 52.7325 110.51 53.4805 110.708C54.228 110.906 55.0233 110.802 55.6939 110.417C56.3675 110.034 56.8628 109.401 57.0721 108.656L57.0721 108.656L57.0742 108.648C57.1745 108.275 57.2002 107.885 57.1498 107.502C57.0994 107.119 56.9739 106.75 56.7805 106.415Z" fill="#DC2626" stroke="#0C0A09" stroke-width="1.5"/>
</svg>
