<svg width="68" height="68" viewBox="0 0 68 68" fill="none" xmlns="http://www.w3.org/2000/svg">
<rect width="67.5" height="68" rx="33.75" fill="#303031"/>
<path d="M43.1709 46.25H22.2529C21.7433 46.25 21.3301 46.6697 21.3301 47.1875V49.0625C21.3301 49.5803 21.7433 50 22.2529 50H43.1709C43.6806 50 44.0938 49.5803 44.0938 49.0625V47.1875C44.0938 46.6697 43.6806 46.25 43.1709 46.25Z" fill="white"/>
<path d="M23.791 42.5V44.375H41.6328V42.5C41.6328 41.9822 41.2196 41.5625 40.71 41.5625H24.7139C24.2042 41.5625 23.791 41.9822 23.791 42.5Z" fill="white"/>
<path d="M21.8894 35.5496L23.4575 36.2323C23.1795 32.5875 23.7802 29.243 25.2073 26.5258C26.6996 23.6845 29.0265 21.5284 32.1464 20.0879C31.968 20.098 31.7901 20.1115 31.6131 20.1298C29.8065 20.317 28.1736 20.926 26.7599 21.9398C25.1932 23.0633 23.9388 24.6588 23.0316 26.6821C22.0562 28.8574 21.4841 31.5351 21.3312 34.6411C21.312 35.0327 21.5347 35.3951 21.8894 35.5496Z" fill="white"/>
<path d="M45.6087 28.8928L40.3544 23.0214L39.7784 18.8086C39.7297 18.4521 39.4844 18.1555 39.1472 18.0451C38.81 17.9348 38.4404 18.0305 38.1961 18.291L35.9176 20.7212C31.6178 21.8704 28.5631 24.1191 26.8358 27.4079C25.5003 29.9506 24.9864 33.1538 25.3496 36.6711C25.4729 37.8644 25.6757 38.902 25.863 39.6875H39.1719V37.8125C39.1719 37.6171 39.1118 37.4265 39 37.2675L36.7974 34.1348C36.5097 33.7258 36.516 33.1807 36.8129 32.7786C37.1189 32.3642 37.6633 32.2092 38.1367 32.4015L41.9807 33.9635C42.8678 34.324 43.865 34.0569 44.4618 33.299L45.6968 31.7308C46.3617 30.8865 46.3246 29.6929 45.6087 28.8928ZM37.3262 28.0625C36.8166 28.0625 36.4034 27.6427 36.4034 27.125C36.4034 26.6072 36.8166 26.1875 37.3262 26.1875C37.8359 26.1875 38.2491 26.6072 38.2491 27.125C38.2491 27.6428 37.8359 28.0625 37.3262 28.0625Z" fill="white"/>
</svg>
