<svg width="68" height="68" viewBox="0 0 68 68" fill="none" xmlns="http://www.w3.org/2000/svg">
<rect width="68" height="68" rx="34" fill="#303031"/>
<path d="M31.5995 20.6719C25.5835 20.6719 20.6875 25.557 20.6875 31.5729C20.6875 37.5891 25.5835 42.4849 31.5995 42.4849C31.7382 42.4849 31.8768 42.4849 32.0048 42.4745L31.5675 40.3516C26.7355 40.3305 22.8208 36.4052 22.8208 31.5729C22.8208 26.7411 26.7568 22.8052 31.5995 22.8052C36.4315 22.8052 40.3568 26.7411 40.3568 31.5729V31.6797L42.4795 32.0849C42.4902 31.9143 42.4902 31.7438 42.4902 31.5729C42.4902 25.557 37.6048 20.6719 31.5995 20.6719Z" fill="white"/>
<path d="M37.7216 31.1789L35.0869 30.6776C32.4739 30.2646 30.1473 32.5379 30.5322 35.2323L30.5429 35.2964L31.0336 37.6964C27.8976 37.4188 25.4336 34.7734 25.4336 31.5734C25.4336 28.1815 28.1962 25.4297 31.5883 25.4297C34.8523 25.4297 37.5296 27.9682 37.7216 31.1789Z" fill="white"/>
<path d="M47.3115 44.3398C47.3233 44.8358 47.1107 45.3081 46.7563 45.6507L45.6461 46.7845C44.9528 47.478 43.7601 47.5394 42.9533 46.7845L39.3764 43.184L37.6639 44.8847C37.1678 45.3809 36.4355 45.558 35.7623 45.3455C35.0773 45.133 34.5812 44.5542 34.4631 43.8573L32.6443 34.9401C32.4603 33.5994 33.6251 32.5995 34.7466 32.7786L43.7819 34.5032C44.5142 34.6093 45.0811 35.0938 45.3173 35.7786C45.5535 36.4637 45.3645 37.1961 44.8685 37.7157L43.1677 39.3928L46.7563 42.9696C47.1343 43.3358 47.3115 43.8199 47.3115 44.3398Z" fill="white"/>
</svg>
