<svg width="68" height="68" viewBox="0 0 68 68" fill="none" xmlns="http://www.w3.org/2000/svg">
<rect width="68" height="68" rx="34" fill="#303031"/>
<g clip-path="url(#clip0_1_674)">
<path d="M22.75 33C23.5063 33 24.1909 32.6965 24.6968 32.2092L27.4719 33.5967C27.458 33.7097 27.4375 33.8208 27.4375 33.9375C27.4375 35.4883 28.6992 36.75 30.25 36.75C31.8008 36.75 33.0625 35.4883 33.0625 33.9375C33.0625 33.5046 32.9561 33.0994 32.7805 32.7327L36.5452 28.968C36.9119 29.1436 37.3171 29.25 37.75 29.25C39.3008 29.25 40.5625 27.9883 40.5625 26.4375C40.5625 26.1455 40.5051 25.8694 40.4221 25.6045L43.6931 23.1519C44.1394 23.45 44.6743 23.625 45.25 23.625C46.8008 23.625 48.0625 22.3633 48.0625 20.8125C48.0625 19.2617 46.8008 18 45.25 18C43.6992 18 42.4375 19.2617 42.4375 20.8125C42.4375 21.1045 42.4949 21.3806 42.5779 21.6455L39.3069 24.0981C38.8606 23.8 38.3257 23.625 37.75 23.625C36.1992 23.625 34.9375 24.8867 34.9375 26.4375C34.9375 26.8704 35.0439 27.2756 35.2195 27.6423L31.4548 31.407C31.0881 31.2314 30.6829 31.125 30.25 31.125C29.4937 31.125 28.8091 31.4285 28.3032 31.9158L25.5281 30.5283C25.542 30.4153 25.5625 30.3042 25.5625 30.1875C25.5625 28.6367 24.3008 27.375 22.75 27.375C21.1992 27.375 19.9375 28.6367 19.9375 30.1875C19.9375 31.7383 21.1992 33 22.75 33Z" fill="white"/>
<path d="M49.0625 48.125H48.0625V28.3125C48.0625 27.7944 47.6431 27.375 47.125 27.375H43.375C42.8569 27.375 42.4375 27.7944 42.4375 28.3125V48.125H40.5625V33.9375C40.5625 33.4194 40.1431 33 39.625 33H35.875C35.3569 33 34.9375 33.4194 34.9375 33.9375V48.125H33.0625V41.4375C33.0625 40.9194 32.6431 40.5 32.125 40.5H28.375C27.8569 40.5 27.4375 40.9194 27.4375 41.4375V48.125H25.5625V37.6875C25.5625 37.1694 25.1431 36.75 24.625 36.75H20.875C20.3569 36.75 19.9375 37.1694 19.9375 37.6875V48.125H18.9375C18.4194 48.125 18 48.5444 18 49.0625C18 49.5806 18.4194 50 18.9375 50H49.0625C49.5806 50 50 49.5806 50 49.0625C50 48.5444 49.5806 48.125 49.0625 48.125Z" fill="white"/>
</g>
<defs>
<clipPath id="clip0_1_674">
<rect width="32" height="32" fill="white" transform="translate(18 18)"/>
</clipPath>
</defs>
</svg>
