<svg width="68" height="68" viewBox="0 0 68 68" fill="none" xmlns="http://www.w3.org/2000/svg">
<rect width="68" height="68" rx="34" fill="#303031"/>
<path fill-rule="evenodd" clip-rule="evenodd" d="M47.9212 46.2418H20.0787C18.9325 46.2418 18 45.3087 18 44.1624V26.6387H49.9994V44.163C50 45.3087 49.0675 46.2418 47.9212 46.2418ZM32.3585 40.227C32.1548 40.227 31.9573 40.187 31.7823 40.1045C31.3704 39.9095 31.1341 39.507 31.1341 39.0001V33.8439C31.1341 33.3558 31.3654 32.9664 31.7679 32.7758C32.2685 32.5389 32.9822 32.6545 33.4641 33.0501L36.3716 35.437C36.6847 35.6939 36.8647 36.0589 36.8647 36.4383C36.8647 36.817 36.6847 37.182 36.3716 37.4395L33.4641 39.8258C33.146 40.087 32.741 40.227 32.3585 40.227ZM32.3504 33.5264C32.2722 33.5264 32.2004 33.5395 32.1422 33.567C32.0991 33.5876 32.0091 33.6301 32.0091 33.8439V39.0001C32.0091 39.2439 32.1122 39.2926 32.156 39.3139C32.3247 39.3933 32.6604 39.3533 32.9091 39.1495L35.8166 36.7633C35.9285 36.6714 35.9897 36.5564 35.9897 36.4383C35.9897 36.3208 35.9285 36.2052 35.8166 36.1139L32.9091 33.727C32.7554 33.5995 32.536 33.5264 32.3504 33.5264ZM41.3872 42.5649H26.6122C25.516 42.5649 24.6247 41.6731 24.6247 40.5774L24.6248 32.3031C24.6248 31.2068 25.5166 30.3156 26.6123 30.3156H41.3873C42.4835 30.3156 43.3748 31.2074 43.3748 32.3031V40.5774C43.3747 41.6731 42.4829 42.5649 41.3872 42.5649ZM26.6122 31.1899C25.9985 31.1899 25.4997 31.6893 25.4997 32.3024V40.5768C25.4997 41.1906 25.9991 41.6893 26.6122 41.6893H41.3872C42.001 41.6893 42.4997 41.1899 42.4997 40.5768L42.4997 32.3031C42.4997 31.6893 42.0003 31.1906 41.3872 31.1906L26.6122 31.1906L26.6122 31.1899Z" fill="white"/>
<path fill-rule="evenodd" clip-rule="evenodd" d="M20.6663 25.1765C19.8856 25.1765 19.25 24.5415 19.25 23.7602C19.25 22.979 19.885 22.344 20.6663 22.344C21.4475 22.344 22.0825 22.979 22.0825 23.7602C22.0825 24.5415 21.4475 25.1765 20.6663 25.1765ZM20.6663 23.2196C20.3681 23.2196 20.125 23.4621 20.125 23.7608C20.125 24.0596 20.3675 24.3021 20.6663 24.3021C20.965 24.3021 21.2075 24.0596 21.2075 23.7608C21.2075 23.4621 20.965 23.2196 20.6663 23.2196ZM23.6025 25.1765C22.8219 25.1765 22.1862 24.5415 22.1862 23.7602C22.1862 22.979 22.8212 22.344 23.6025 22.344C24.3838 22.344 25.0188 22.979 25.0188 23.7602C25.0188 24.5415 24.3831 25.1765 23.6025 25.1765ZM23.6025 23.2196C23.3044 23.2196 23.0612 23.4621 23.0612 23.7608C23.0612 24.0596 23.3037 24.3021 23.6025 24.3021C23.9012 24.3021 24.1438 24.0596 24.1438 23.7608C24.1438 23.4621 23.9006 23.2196 23.6025 23.2196ZM26.5381 25.1765C25.7575 25.1765 25.1219 24.5415 25.1219 23.7602C25.1219 22.979 25.7569 22.344 26.5381 22.344C27.3194 22.344 27.9544 22.979 27.9544 23.7602C27.9544 24.5415 27.3187 25.1765 26.5381 25.1765ZM26.5381 23.2196C26.24 23.2196 25.9969 23.4621 25.9969 23.7608C25.9969 24.0596 26.2394 24.3021 26.5381 24.3021C26.8369 24.3021 27.0794 24.0596 27.0794 23.7608C27.0794 23.4621 26.8362 23.2196 26.5381 23.2196ZM18 25.7646V23.8346C18 22.6884 18.9325 21.7559 20.0788 21.7559H47.9206C49.0669 21.7559 49.9994 22.6884 49.9994 23.8346V25.7646L18 25.7646Z" fill="white"/>
</svg>
